<?xml version="1.0" encoding="UTF-8"?>
<svg viewBox="103.21598815917969 62.472843170166016 298.3213806152344 272.5173645019531" xmlns="http://www.w3.org/2000/svg">
<line x1="145.18" x2="200.18" y1="156.34" y2="102.02" fill="#00a6ff" stroke="#00a6ff" stroke-width="4"/>
<line x1="307.71" x2="237.09" y1="217.82" y2="297.27" stroke="#00a6ff" stroke-width="4"/>
<line x1="200.86" x2="264.7" y1="103.38" y2="173.32" stroke="#00a6ff" stroke-width="4"/>
<line x1="237.24" x2="303.78" y1="144.12" y2="224.25" stroke="#00a6ff" stroke-width="4"/>
<line x1="301.89" x2="363.01" y1="225.61" y2="297.59" stroke="#00a6ff" stroke-width="4"/>
<line x1="302.42" x2="301.74" y1="225.61" y2="294.87" stroke="#00a6ff" stroke-width="4"/>
<line x1="202.6" x2="254.89" y1="218.14" y2="162.46" stroke="#00a6ff" stroke-width="4"/>
<ellipse transform="matrix(-.65294 .75741 -.75741 -.65294 462.37 -3.3372)" cx="251.63" cy="131.03" rx="24.96" ry="24.96" fill="#00a6ff">
<title>mul</title>
</ellipse>
<text x="182.53" y="109.517" fill="rgb(255, 255, 255)" font-family="sans-serif" font-size="20px" style="white-space:pre">mul</text>
<ellipse transform="matrix(-.65294 .75741 -.75741 -.65294 407.82 53.378)" cx="251.63" cy="131.03" rx="24.96" ry="24.96" fill="#00a6ff">
<title>mul</title>
</ellipse>
<text x="138.068" y="166.232" fill="rgb(255, 255, 255)" font-family="sans-serif" font-size="20px" style="white-space:pre">3</text>
<ellipse transform="matrix(-.65294 .75741 -.75741 -.65294 520.09 54.682)" cx="251.63" cy="131.03" rx="24.96" ry="24.96" fill="#00a6ff">
<title>mul</title>
</ellipse>
<ellipse transform="matrix(-.65294 .75741 -.75741 -.65294 466.24 116.92)" cx="251.63" cy="131.03" rx="24.96" ry="24.96" fill="#00a6ff">
<title>mul</title>
</ellipse>
<ellipse transform="matrix(-.65294 .75741 -.75741 -.65294 564.74 118.57)" cx="251.63" cy="131.03" rx="24.96" ry="24.96" fill="#00a6ff">
<title>mul</title>
</ellipse>
<ellipse transform="matrix(-.65294 .75741 -.75741 -.65294 504.74 190.17)" cx="251.63" cy="131.03" rx="24.96" ry="24.96" fill="#00a6ff">
<title>mul</title>
</ellipse>
<ellipse transform="matrix(.75741 .65294 -.65294 .75741 196.17 31.661)" cx="251.63" cy="131.03" rx="24.96" ry="24.96" fill="#00a6ff">
<title>mul</title>
</ellipse>
<ellipse transform="matrix(-.65294 .75741 -.75741 -.65294 625.74 190.17)" cx="251.63" cy="131.03" rx="24.96" ry="24.96" fill="#00a6ff">
<title>mul</title>
</ellipse>
<text x="241.03" y="166.787" fill="rgb(255, 255, 255)" font-family="sans-serif" font-size="20px" style="white-space:pre">sub</text>
<text x="197.403" y="229.687" fill="rgb(255, 255, 255)" font-family="sans-serif" font-size="20px" style="white-space:pre">2</text>
<text x="282.643" y="230.045" fill="rgb(255, 255, 255)" font-family="sans-serif" font-size="20px" style="white-space:pre">sum</text>
<text x="235.305" y="303.89" fill="rgb(255, 255, 255)" font-family="sans-serif" font-size="20px" style="white-space:pre">1</text>
<text x="295.359" y="302.173" fill="rgb(255, 255, 255)" font-family="sans-serif" font-size="20px" style="white-space:pre">3</text>
<text x="355.696" y="302.569" fill="rgb(255, 255, 255)" font-family="sans-serif" font-size="20px" style="white-space:pre">4</text>
</svg>