<svg xmlns="http://www.w3.org/2000/svg" xmlns:xlink="http://www.w3.org/1999/xlink" width="800" height="521.04"><rect width="800" height="521.04" rx="0" ry="0" class="a"/><svg height="521.04" viewBox="0 0 80 52.104" width="800" xmlns="http://www.w3.org/2000/svg" xmlns:xlink="http://www.w3.org/1999/xlink"><style>@keyframes h{0%{transform:translateX(0)}.2%{transform:translateX(-80px)}6%{transform:translateX(-160px)}13.1%{transform:translateX(-240px)}13.7%{transform:translateX(-320px)}15.1%{transform:translateX(-400px)}16.1%{transform:translateX(-480px)}16.9%{transform:translateX(-560px)}17.6%{transform:translateX(-640px)}18.5%{transform:translateX(-720px)}22.7%{transform:translateX(-800px)}28.4%{transform:translateX(-880px)}29.7%{transform:translateX(-960px)}30.7%{transform:translateX(-1040px)}34.2%{transform:translateX(-1120px)}35.7%{transform:translateX(-1200px)}37.2%{transform:translateX(-1280px)}40.2%{transform:translateX(-1360px)}40.5%{transform:translateX(-2000px)}40.9%{transform:translateX(-2080px)}to{transform:translateX(-2160px)}}.a{fill:#282d35}.c{fill:#444}.d{fill:#ffd75f;font-weight:700}.e{fill:#b9c0cb}</style><g font-size="1.67" font-family="Monaco,Consolas,Menlo,'Bitstream Vera Sans Mono','Powerline Symbols',monospace"><defs><symbol id="1"><text y="1.67" class="c">~/go/src/github.com/cweill</text><text x="27.054" y="1.67" class="d">❯</text></symbol><symbol id="2"><text y="1.67" class="c">~/go/src/github.com/cweill</text><text x="27.054" y="1.67" class="d">❯</text><text x="29.058" y="1.67" class="e">revive</text></symbol><symbol id="3"><text y="1.67" class="c">~/go/src/github.com/cweill</text><text x="27.054" y="1.67" class="d">❯</text><text x="29.058" y="1.67" class="e">revive</text><text x="36.072" y="1.67" class="e">gotests/internal/...</text></symbol><symbol id="4"><text y="1.67" class="e">/Users/mgechev/go/src/github.com/cweill/gotests/internal/goparser/goparser.go:1:</text></symbol><symbol id="5"><text y="1.67" class="e">1:</text><text x="3.006" y="1.67" class="e">package</text><text x="11.022" y="1.67" class="e">comment</text><text x="19.038" y="1.67" class="e">should</text><text x="26.052" y="1.67" class="e">be</text><text x="29.058" y="1.67" class="e">of</text><text x="32.064" y="1.67" class="e">the</text><text x="36.072" y="1.67" class="e">form</text><text x="41.082" y="1.67" class="e">&quot;Package</text><text x="50.1" y="1.67" class="e">goparser</text><text x="59.118" y="1.67" class="e">...&quot;</text></symbol><symbol id="6"><text y="1.67" class="e">/Users/mgechev/go/src/github.com/cweill/gotests/internal/input/input.go:15:26:</text><text x="79.158" y="1.67" class="e">e</text></symbol><symbol id="7"><text y="1.67" class="e">rror</text><text x="5.01" y="1.67" class="e">strings</text><text x="13.026" y="1.67" class="e">should</text><text x="20.04" y="1.67" class="e">not</text><text x="24.048" y="1.67" class="e">be</text><text x="27.054" y="1.67" class="e">capitalized</text><text x="39.078" y="1.67" class="e">or</text><text x="42.084" y="1.67" class="e">end</text><text x="46.092" y="1.67" class="e">with</text><text x="51.102" y="1.67" class="e">punctuation</text><text x="63.126" y="1.67" class="e">or</text><text x="66.132" y="1.67" class="e">a</text><text x="68.136" y="1.67" class="e">newline</text></symbol><symbol id="8"><text y="1.67" class="e">/Users/mgechev/go/src/github.com/cweill/gotests/internal/input/input.go:26:26:</text><text x="79.158" y="1.67" class="e">e</text></symbol><symbol id="9"><text y="1.67" class="e">/Users/mgechev/go/src/github.com/cweill/gotests/internal/input/input.go:11:1:</text><text x="78.156" y="1.67" class="e">co</text></symbol><symbol id="10"><text y="1.67" class="e">mment</text><text x="6.012" y="1.67" class="e">on</text><text x="9.018" y="1.67" class="e">exported</text><text x="18.036" y="1.67" class="e">function</text><text x="27.054" y="1.67" class="e">Files</text><text x="33.066" y="1.67" class="e">should</text><text x="40.08" y="1.67" class="e">be</text><text x="43.086" y="1.67" class="e">of</text><text x="46.092" y="1.67" class="e">the</text><text x="50.1" y="1.67" class="e">form</text><text x="55.11" y="1.67" class="e">&quot;Files</text><text x="62.124" y="1.67" class="e">...&quot;</text></symbol><symbol id="11"><text y="1.67" class="e">/Users/mgechev/go/src/github.com/cweill/gotests/internal/output/output.go:17:6:</text></symbol><symbol id="12"><text y="1.67" class="e">exported</text><text x="9.018" y="1.67" class="e">type</text><text x="14.028" y="1.67" class="e">Options</text><text x="22.044" y="1.67" class="e">should</text><text x="29.058" y="1.67" class="e">have</text><text x="34.068" y="1.67" class="e">comment</text><text x="42.084" y="1.67" class="e">or</text><text x="45.09" y="1.67" class="e">be</text><text x="48.096" y="1.67" class="e">unexported</text></symbol><symbol id="13"><text y="1.67" class="e">/Users/mgechev/go/src/github.com/cweill/gotests/internal/output/output.go:22:1:</text></symbol><symbol id="14"><text y="1.67" class="e">exported</text><text x="9.018" y="1.67" class="e">function</text><text x="18.036" y="1.67" class="e">Process</text><text x="26.052" y="1.67" class="e">should</text><text x="33.066" y="1.67" class="e">have</text><text x="38.076" y="1.67" class="e">comment</text><text x="46.092" y="1.67" class="e">or</text><text x="49.098" y="1.67" class="e">be</text><text x="52.104" y="1.67" class="e">unexported</text></symbol><symbol id="15"><text y="1.67" class="e">/Users/mgechev/go/src/github.com/cweill/gotests/internal/output/output.go:40:1:</text></symbol><symbol id="16"><text y="1.67" class="e">exported</text><text x="9.018" y="1.67" class="e">function</text><text x="18.036" y="1.67" class="e">IsFileExist</text><text x="30.06" y="1.67" class="e">should</text><text x="37.074" y="1.67" class="e">have</text><text x="42.084" y="1.67" class="e">comment</text><text x="50.1" y="1.67" class="e">or</text><text x="53.106" y="1.67" class="e">be</text><text x="56.112" y="1.67" class="e">unexported</text></symbol><symbol id="17"><text y="1.67" class="e">/Users/mgechev/go/src/github.com/cweill/gotests/internal/render/render.go:91:1:</text></symbol><symbol id="18"><text y="1.67" class="e">exported</text><text x="9.018" y="1.67" class="e">function</text><text x="18.036" y="1.67" class="e">Header</text><text x="25.05" y="1.67" class="e">should</text><text x="32.064" y="1.67" class="e">have</text><text x="37.074" y="1.67" class="e">comment</text><text x="45.09" y="1.67" class="e">or</text><text x="48.096" y="1.67" class="e">be</text><text x="51.102" y="1.67" class="e">unexported</text></symbol><symbol id="19"><text y="1.67" class="e">/Users/mgechev/go/src/github.com/cweill/gotests/internal/render/render.go:99:1:</text></symbol><symbol id="20"><text y="1.67" class="e">exported</text><text x="9.018" y="1.67" class="e">function</text><text x="18.036" y="1.67" class="e">TestFunction</text><text x="31.062" y="1.67" class="e">should</text><text x="38.076" y="1.67" class="e">have</text><text x="43.086" y="1.67" class="e">comment</text><text x="51.102" y="1.67" class="e">or</text><text x="54.108" y="1.67" class="e">be</text><text x="57.114" y="1.67" class="e">unexported</text></symbol><symbol id="21"><text y="1.67" class="e">exported</text><text x="9.018" y="1.67" class="e">method</text><text x="16.032" y="1.67" class="e">Field.IsWriter</text><text x="31.062" y="1.67" class="e">should</text><text x="38.076" y="1.67" class="e">have</text><text x="43.086" y="1.67" class="e">comment</text><text x="51.102" y="1.67" class="e">or</text><text x="54.108" y="1.67" class="e">be</text><text x="57.114" y="1.67" class="e">unexported</text></symbol><symbol id="22"><text y="1.67" class="e">/Users/mgechev/go/src/github.com/cweill/gotests/internal/models/models.go:37:1:</text></symbol><symbol id="23"><text y="1.67" class="e">exported</text><text x="9.018" y="1.67" class="e">method</text><text x="16.032" y="1.67" class="e">Field.IsStruct</text><text x="31.062" y="1.67" class="e">should</text><text x="38.076" y="1.67" class="e">have</text><text x="43.086" y="1.67" class="e">comment</text><text x="51.102" y="1.67" class="e">or</text><text x="54.108" y="1.67" class="e">be</text><text x="57.114" y="1.67" class="e">unexported</text></symbol><symbol id="24"><text y="1.67" class="e">/Users/mgechev/go/src/github.com/cweill/gotests/internal/models/models.go:41:1:</text></symbol><symbol id="25"><text y="1.67" class="e">exported</text><text x="9.018" y="1.67" class="e">method</text><text x="16.032" y="1.67" class="e">Field.IsBasicType</text><text x="34.068" y="1.67" class="e">should</text><text x="41.082" y="1.67" class="e">have</text><text x="46.092" y="1.67" class="e">comment</text><text x="54.108" y="1.67" class="e">or</text><text x="57.114" y="1.67" class="e">be</text><text x="60.12" y="1.67" class="e">unexported</text></symbol><symbol id="26"><text y="1.67" class="e">/Users/mgechev/go/src/github.com/cweill/gotests/internal/models/models.go:56:1:</text></symbol><symbol id="27"><text y="1.67" class="e">exported</text><text x="9.018" y="1.67" class="e">method</text><text x="16.032" y="1.67" class="e">Field.IsNamed</text><text x="30.06" y="1.67" class="e">should</text><text x="37.074" y="1.67" class="e">have</text><text x="42.084" y="1.67" class="e">comment</text><text x="50.1" y="1.67" class="e">or</text><text x="53.106" y="1.67" class="e">be</text><text x="56.112" y="1.67" class="e">unexported</text></symbol><symbol id="28"><text y="1.67" class="e">/Users/mgechev/go/src/github.com/cweill/gotests/internal/models/models.go:60:1:</text></symbol><symbol id="29"><text y="1.67" class="e">exported</text><text x="9.018" y="1.67" class="e">method</text><text x="16.032" y="1.67" class="e">Function.TestParameters</text><text x="40.08" y="1.67" class="e">should</text><text x="47.094" y="1.67" class="e">have</text><text x="52.104" y="1.67" class="e">comment</text><text x="60.12" y="1.67" class="e">or</text><text x="63.126" y="1.67" class="e">be</text><text x="66.132" y="1.67" class="e">unexported</text></symbol><symbol id="30"><text y="1.67" class="e">/Users/mgechev/go/src/github.com/cweill/gotests/internal/models/models.go:89:1:</text></symbol><symbol id="31"><text y="1.67" class="e">exported</text><text x="9.018" y="1.67" class="e">method</text><text x="16.032" y="1.67" class="e">Function.TestResults</text><text x="37.074" y="1.67" class="e">should</text><text x="44.088" y="1.67" class="e">have</text><text x="49.098" y="1.67" class="e">comment</text><text x="57.114" y="1.67" class="e">or</text><text x="60.12" y="1.67" class="e">be</text><text x="63.126" y="1.67" class="e">unexported</text></symbol><symbol id="32"><text y="1.67" class="e">/Users/mgechev/go/src/github.com/cweill/gotests/internal/models/models.go:109:1:</text></symbol><symbol id="33"><text x="1.002" y="1.67" class="e">exported</text><text x="10.02" y="1.67" class="e">method</text><text x="17.034" y="1.67" class="e">Function.ReturnsMultiple</text><text x="42.084" y="1.67" class="e">should</text><text x="49.098" y="1.67" class="e">have</text><text x="54.108" y="1.67" class="e">comment</text><text x="62.124" y="1.67" class="e">or</text><text x="65.13" y="1.67" class="e">be</text><text x="68.136" y="1.67" class="e">unexported</text></symbol><symbol id="34"><text y="1.67" class="e">/Users/mgechev/go/src/github.com/cweill/gotests/internal/models/models.go:113:1:</text></symbol><symbol id="35"><text x="1.002" y="1.67" class="e">exported</text><text x="10.02" y="1.67" class="e">method</text><text x="17.034" y="1.67" class="e">Function.OnlyReturnsOneValue</text><text x="46.092" y="1.67" class="e">should</text><text x="53.106" y="1.67" class="e">have</text><text x="58.116" y="1.67" class="e">comment</text><text x="66.132" y="1.67" class="e">or</text><text x="69.138" y="1.67" class="e">be</text><text x="72.144" y="1.67" class="e">unexport</text></symbol><symbol id="36"><text y="1.67" class="e">ed</text></symbol><symbol id="37"><text y="1.67" class="e">/Users/mgechev/go/src/github.com/cweill/gotests/internal/models/models.go:117:1:</text></symbol><symbol id="38"><text x="1.002" y="1.67" class="e">exported</text><text x="10.02" y="1.67" class="e">method</text><text x="17.034" y="1.67" class="e">Function.OnlyReturnsError</text><text x="43.086" y="1.67" class="e">should</text><text x="50.1" y="1.67" class="e">have</text><text x="55.11" y="1.67" class="e">comment</text><text x="63.126" y="1.67" class="e">or</text><text x="66.132" y="1.67" class="e">be</text><text x="69.138" y="1.67" class="e">unexported</text></symbol><symbol id="39"><text y="1.67" class="e">/Users/mgechev/go/src/github.com/cweill/gotests/internal/models/models.go:121:1:</text></symbol><symbol id="40"><text x="1.002" y="1.67" class="e">exported</text><text x="10.02" y="1.67" class="e">method</text><text x="17.034" y="1.67" class="e">Function.FullName</text><text x="35.07" y="1.67" class="e">should</text><text x="42.084" y="1.67" class="e">have</text><text x="47.094" y="1.67" class="e">comment</text><text x="55.11" y="1.67" class="e">or</text><text x="58.116" y="1.67" class="e">be</text><text x="61.122" y="1.67" class="e">unexported</text></symbol><symbol id="41"><text y="1.67" class="e">/Users/mgechev/go/src/github.com/cweill/gotests/internal/models/models.go:129:1:</text></symbol><symbol id="42"><text x="1.002" y="1.67" class="e">exported</text><text x="10.02" y="1.67" class="e">method</text><text x="17.034" y="1.67" class="e">Function.TestName</text><text x="35.07" y="1.67" class="e">should</text><text x="42.084" y="1.67" class="e">have</text><text x="47.094" y="1.67" class="e">comment</text><text x="55.11" y="1.67" class="e">or</text><text x="58.116" y="1.67" class="e">be</text><text x="61.122" y="1.67" class="e">unexported</text></symbol><symbol id="43"><text y="1.67" class="e">/Users/mgechev/go/src/github.com/cweill/gotests/internal/models/models.go:146:1:</text></symbol><symbol id="44"><text x="1.002" y="1.67" class="e">exported</text><text x="10.02" y="1.67" class="e">method</text><text x="17.034" y="1.67" class="e">Function.IsNaked</text><text x="34.068" y="1.67" class="e">should</text><text x="41.082" y="1.67" class="e">have</text><text x="46.092" y="1.67" class="e">comment</text><text x="54.108" y="1.67" class="e">or</text><text x="57.114" y="1.67" class="e">be</text><text x="60.12" y="1.67" class="e">unexported</text></symbol><symbol id="45"><text y="1.67" class="e">/Users/mgechev/go/src/github.com/cweill/gotests/internal/models/models.go:150:6:</text></symbol><symbol id="46"><text x="1.002" y="1.67" class="e">exported</text><text x="10.02" y="1.67" class="e">type</text><text x="15.03" y="1.67" class="e">Import</text><text x="22.044" y="1.67" class="e">should</text><text x="29.058" y="1.67" class="e">have</text><text x="34.068" y="1.67" class="e">comment</text><text x="42.084" y="1.67" class="e">or</text><text x="45.09" y="1.67" class="e">be</text><text x="48.096" y="1.67" class="e">unexported</text></symbol><symbol id="47"><text y="1.67" class="e">/Users/mgechev/go/src/github.com/cweill/gotests/internal/models/models.go:154:6:</text></symbol><symbol id="48"><text x="1.002" y="1.67" class="e">exported</text><text x="10.02" y="1.67" class="e">type</text><text x="15.03" y="1.67" class="e">Header</text><text x="22.044" y="1.67" class="e">should</text><text x="29.058" y="1.67" class="e">have</text><text x="34.068" y="1.67" class="e">comment</text><text x="42.084" y="1.67" class="e">or</text><text x="45.09" y="1.67" class="e">be</text><text x="48.096" y="1.67" class="e">unexported</text></symbol><symbol id="49"><text y="1.67" class="e">/Users/mgechev/go/src/github.com/cweill/gotests/internal/models/models.go:161:6:</text></symbol><symbol id="50"><text x="1.002" y="1.67" class="e">exported</text><text x="10.02" y="1.67" class="e">type</text><text x="15.03" y="1.67" class="e">Path</text><text x="20.04" y="1.67" class="e">should</text><text x="27.054" y="1.67" class="e">have</text><text x="32.064" y="1.67" class="e">comment</text><text x="40.08" y="1.67" class="e">or</text><text x="43.086" y="1.67" class="e">be</text><text x="46.092" y="1.67" class="e">unexported</text></symbol><symbol id="51"><text y="1.67" class="e">/Users/mgechev/go/src/github.com/cweill/gotests/internal/models/models.go:163:1:</text></symbol><symbol id="52"><text x="1.002" y="1.67" class="e">exported</text><text x="10.02" y="1.67" class="e">method</text><text x="17.034" y="1.67" class="e">Path.TestPath</text><text x="31.062" y="1.67" class="e">should</text><text x="38.076" y="1.67" class="e">have</text><text x="43.086" y="1.67" class="e">comment</text><text x="51.102" y="1.67" class="e">or</text><text x="54.108" y="1.67" class="e">be</text><text x="57.114" y="1.67" class="e">unexported</text></symbol><symbol id="53"><text y="1.67" class="e">/Users/mgechev/go/src/github.com/cweill/gotests/internal/models/models.go:170:1:</text></symbol><symbol id="54"><text x="1.002" y="1.67" class="e">exported</text><text x="10.02" y="1.67" class="e">method</text><text x="17.034" y="1.67" class="e">Path.IsTestPath</text><text x="33.066" y="1.67" class="e">should</text><text x="40.08" y="1.67" class="e">have</text><text x="45.09" y="1.67" class="e">comment</text><text x="53.106" y="1.67" class="e">or</text><text x="56.112" y="1.67" class="e">be</text><text x="59.118" y="1.67" class="e">unexported</text></symbol><symbol id="a"><path fill="transparent" d="M0 0h80v24H0z"/></symbol><symbol id="b"><path fill="#6f7683" d="M0 0h1.102v2.171H0z"/></symbol></defs><path class="a" d="M0 0h80v52.104H0z"/><g style="animation-duration:11.579112s;animation-iteration-count:infinite;animation-name:h;animation-timing-function:steps(1,end)"><svg width="2240"><svg><use xlink:href="#a"/><use xlink:href="#b" x="-.004"/></svg><svg x="80"><use xlink:href="#a"/><use xlink:href="#b" x="-.004"/></svg><svg x="160"><use xlink:href="#a"/><use xlink:href="#b" x="28.996"/><use xlink:href="#1"/></svg><svg x="240"><use xlink:href="#a"/><use xlink:href="#b" x="29.996"/><text y="1.67" class="c">~/go/src/github.com/cweill</text><text x="27.054" y="1.67" class="d">❯</text><text x="29.058" y="1.67" class="e">r</text></svg><svg x="320"><use xlink:href="#a"/><use xlink:href="#b" x="30.996"/><text y="1.67" class="c">~/go/src/github.com/cweill</text><text x="27.054" y="1.67" class="d">❯</text><text x="29.058" y="1.67" class="e">re</text></svg><svg x="400"><use xlink:href="#a"/><use xlink:href="#b" x="31.996"/><text y="1.67" class="c">~/go/src/github.com/cweill</text><text x="27.054" y="1.67" class="d">❯</text><text x="29.058" y="1.67" class="e">rev</text></svg><svg x="480"><use xlink:href="#a"/><use xlink:href="#b" x="32.996"/><text y="1.67" class="c">~/go/src/github.com/cweill</text><text x="27.054" y="1.67" class="d">❯</text><text x="29.058" y="1.67" class="e">revi</text></svg><svg x="560"><use xlink:href="#a"/><use xlink:href="#b" x="33.996"/><text y="1.67" class="c">~/go/src/github.com/cweill</text><text x="27.054" y="1.67" class="d">❯</text><text x="29.058" y="1.67" class="e">reviv</text></svg><svg x="640"><use xlink:href="#a"/><use xlink:href="#b" x="34.996"/><use xlink:href="#2"/></svg><svg x="720"><use xlink:href="#a"/><use xlink:href="#b" x="35.996"/><use xlink:href="#2"/></svg><svg x="800"><use xlink:href="#a"/><use xlink:href="#b" x="43.996"/><text y="1.67" class="c">~/go/src/github.com/cweill</text><text x="27.054" y="1.67" class="d">❯</text><text x="29.058" y="1.67" class="e">revive</text><text x="36.072" y="1.67" class="e">gotests/</text></svg><svg x="880"><use xlink:href="#a"/><use xlink:href="#b" x="44.996"/><text y="1.67" class="c">~/go/src/github.com/cweill</text><text x="27.054" y="1.67" class="d">❯</text><text x="29.058" y="1.67" class="e">revive</text><text x="36.072" y="1.67" class="e">gotests/i</text></svg><svg x="960"><use xlink:href="#a"/><use xlink:href="#b" x="45.996"/><text y="1.67" class="c">~/go/src/github.com/cweill</text><text x="27.054" y="1.67" class="d">❯</text><text x="29.058" y="1.67" class="e">revive</text><text x="36.072" y="1.67" class="e">gotests/in</text></svg><svg x="1040"><use xlink:href="#a"/><use xlink:href="#b" x="52.996"/><text y="1.67" class="c">~/go/src/github.com/cweill</text><text x="27.054" y="1.67" class="d">❯</text><text x="29.058" y="1.67" class="e">revive</text><text x="36.072" y="1.67" class="e">gotests/internal/</text></svg><svg x="1120"><use xlink:href="#a"/><use xlink:href="#b" x="53.996"/><text y="1.67" class="c">~/go/src/github.com/cweill</text><text x="27.054" y="1.67" class="d">❯</text><text x="29.058" y="1.67" class="e">revive</text><text x="36.072" y="1.67" class="e">gotests/internal/.</text></svg><svg x="1200"><use xlink:href="#a"/><use xlink:href="#b" x="54.996"/><text y="1.67" class="c">~/go/src/github.com/cweill</text><text x="27.054" y="1.67" class="d">❯</text><text x="29.058" y="1.67" class="e">revive</text><text x="36.072" y="1.67" class="e">gotests/internal/..</text></svg><svg x="1280"><use xlink:href="#a"/><use xlink:href="#b" x="55.996"/><use xlink:href="#3"/></svg><svg x="1360"><use xlink:href="#a"/><use xlink:href="#b" x="-.004" y="2.146"/><use xlink:href="#3"/></svg><svg x="1440"><use xlink:href="#a"/><use xlink:href="#b" x="-.004" y="10.83"/><use xlink:href="#3"/><use xlink:href="#4" y="2.171"/><use xlink:href="#5" y="4.342"/><use xlink:href="#6" y="6.513"/><use xlink:href="#7" y="8.684"/></svg><svg x="1520"><use xlink:href="#a"/><use xlink:href="#b" x="-.004" y="15.172"/><use xlink:href="#3"/><use xlink:href="#4" y="2.171"/><use xlink:href="#5" y="4.342"/><use xlink:href="#6" y="6.513"/><use xlink:href="#7" y="8.684"/><use xlink:href="#8" y="10.855"/><use xlink:href="#7" y="13.026"/></svg><svg x="1600"><use xlink:href="#a"/><use xlink:href="#b" x="-.004" y="32.54"/><use xlink:href="#3"/><use xlink:href="#4" y="2.171"/><use xlink:href="#5" y="4.342"/><use xlink:href="#6" y="6.513"/><use xlink:href="#7" y="8.684"/><use xlink:href="#8" y="10.855"/><use xlink:href="#7" y="13.026"/><use xlink:href="#9" y="15.197"/><use xlink:href="#10" y="17.368"/><use xlink:href="#11" y="19.539"/><use xlink:href="#12" y="21.71"/><use xlink:href="#13" y="23.881"/><use xlink:href="#14" y="26.052"/><use xlink:href="#15" y="28.223"/><use xlink:href="#16" y="30.394"/></svg><svg x="1680"><use xlink:href="#a"/><use xlink:href="#b" x="-.004" y="41.224"/><use xlink:href="#3"/><use xlink:href="#4" y="2.171"/><use xlink:href="#5" y="4.342"/><use xlink:href="#6" y="6.513"/><use xlink:href="#7" y="8.684"/><use xlink:href="#8" y="10.855"/><use xlink:href="#7" y="13.026"/><use xlink:href="#9" y="15.197"/><use xlink:href="#10" y="17.368"/><use xlink:href="#11" y="19.539"/><use xlink:href="#12" y="21.71"/><use xlink:href="#13" y="23.881"/><use xlink:href="#14" y="26.052"/><use xlink:href="#15" y="28.223"/><use xlink:href="#16" y="30.394"/><use xlink:href="#17" y="32.565"/><use xlink:href="#18" y="34.736"/><use xlink:href="#19" y="36.907"/><use xlink:href="#20" y="39.078"/></svg><svg x="1760"><use xlink:href="#a"/><use xlink:href="#b" x="65.996" y="49.908"/><use xlink:href="#11"/><use xlink:href="#12" y="2.171"/><use xlink:href="#13" y="4.342"/><use xlink:href="#14" y="6.513"/><use xlink:href="#15" y="8.684"/><use xlink:href="#16" y="10.855"/><use xlink:href="#17" y="13.026"/><use xlink:href="#18" y="15.197"/><use xlink:href="#19" y="17.368"/><use xlink:href="#20" y="19.539"/><text y="23.38" class="e">/Users/mgechev/go/src/github.com/cweill/gotests/internal/models/models.go:8:6:</text><text x="79.158" y="23.38" class="e">e</text><text y="25.551" class="e">xported</text><text x="8.016" y="25.551" class="e">type</text><text x="13.026" y="25.551" class="e">Expression</text><text x="24.048" y="25.551" class="e">should</text><text x="31.062" y="25.551" class="e">have</text><text x="36.072" y="25.551" class="e">comment</text><text x="44.088" y="25.551" class="e">or</text><text x="47.094" y="25.551" class="e">be</text><text x="50.1" y="25.551" class="e">unexported</text><text y="27.722" class="e">/Users/mgechev/go/src/github.com/cweill/gotests/internal/models/models.go:27:6:</text><text y="29.893" class="e">exported</text><text x="9.018" y="29.893" class="e">type</text><text x="14.028" y="29.893" class="e">Field</text><text x="20.04" y="29.893" class="e">should</text><text x="27.054" y="29.893" class="e">have</text><text x="32.064" y="29.893" class="e">comment</text><text x="40.08" y="29.893" class="e">or</text><text x="43.086" y="29.893" class="e">be</text><text x="46.092" y="29.893" class="e">unexported</text><text y="32.064" class="e">/Users/mgechev/go/src/github.com/cweill/gotests/internal/models/models.go:33:1:</text><use xlink:href="#21" y="32.565"/><use xlink:href="#22" y="34.736"/><use xlink:href="#23" y="36.907"/><use xlink:href="#24" y="39.078"/><use xlink:href="#25" y="41.249"/><use xlink:href="#26" y="43.42"/><use xlink:href="#27" y="45.591"/><use xlink:href="#28" y="47.762"/><text y="51.603" class="e">exported</text><text x="9.018" y="51.603" class="e">method</text><text x="16.032" y="51.603" class="e">Field.ShortName</text><text x="32.064" y="51.603" class="e">should</text><text x="39.078" y="51.603" class="e">have</text><text x="44.088" y="51.603" class="e">comment</text><text x="52.104" y="51.603" class="e">or</text><text x="55.11" y="51.603" class="e">be</text><text x="58.116" y="51.603" class="e">unexport</text></svg><svg x="1840"><use xlink:href="#a"/><use xlink:href="#b" x="20.996" y="49.908"/><use xlink:href="#21"/><use xlink:href="#22" y="2.171"/><use xlink:href="#23" y="4.342"/><use xlink:href="#24" y="6.513"/><use xlink:href="#25" y="8.684"/><use xlink:href="#26" y="10.855"/><use xlink:href="#27" y="13.026"/><use xlink:href="#28" y="15.197"/><text y="19.038" class="e">exported</text><text x="9.018" y="19.038" class="e">method</text><text x="16.032" y="19.038" class="e">Field.ShortName</text><text x="32.064" y="19.038" class="e">should</text><text x="39.078" y="19.038" class="e">have</text><text x="44.088" y="19.038" class="e">comment</text><text x="52.104" y="19.038" class="e">or</text><text x="55.11" y="19.038" class="e">be</text><text x="58.116" y="19.038" class="e">unexported</text><text y="21.209" class="e">/Users/mgechev/go/src/github.com/cweill/gotests/internal/models/models.go:64:6:</text><text y="23.38" class="e">exported</text><text x="9.018" y="23.38" class="e">type</text><text x="14.028" y="23.38" class="e">Receiver</text><text x="23.046" y="23.38" class="e">should</text><text x="30.06" y="23.38" class="e">have</text><text x="35.07" y="23.38" class="e">comment</text><text x="43.086" y="23.38" class="e">or</text><text x="46.092" y="23.38" class="e">be</text><text x="49.098" y="23.38" class="e">unexported</text><text y="25.551" class="e">/Users/mgechev/go/src/github.com/cweill/gotests/internal/models/models.go:69:6:</text><text y="27.722" class="e">exported</text><text x="9.018" y="27.722" class="e">type</text><text x="14.028" y="27.722" class="e">Function</text><text x="23.046" y="27.722" class="e">should</text><text x="30.06" y="27.722" class="e">have</text><text x="35.07" y="27.722" class="e">comment</text><text x="43.086" y="27.722" class="e">or</text><text x="46.092" y="27.722" class="e">be</text><text x="49.098" y="27.722" class="e">unexported</text><text y="29.893" class="e">/Users/mgechev/go/src/github.com/cweill/gotests/internal/models/models.go:78:1:</text><use xlink:href="#29" y="30.394"/><use xlink:href="#30" y="32.565"/><use xlink:href="#31" y="34.736"/><use xlink:href="#32" y="36.907"/><use xlink:href="#33" y="39.078"/><use xlink:href="#34" y="41.249"/><use xlink:href="#35" y="43.42"/><use xlink:href="#36" y="45.591"/><use xlink:href="#37" y="47.762"/><text x="1.002" y="51.603" class="e">exported</text><text x="10.02" y="51.603" class="e">method</text><text x="17.034" y="51.603" class="e">Func</text></svg><svg x="1920"><use xlink:href="#a"/><use xlink:href="#b" x="7.996" y="49.908"/><use xlink:href="#29"/><use xlink:href="#30" y="2.171"/><use xlink:href="#31" y="4.342"/><use xlink:href="#32" y="6.513"/><use xlink:href="#33" y="8.684"/><use xlink:href="#34" y="10.855"/><use xlink:href="#35" y="13.026"/><use xlink:href="#36" y="15.197"/><use xlink:href="#37" y="17.368"/><use xlink:href="#38" y="19.539"/><use xlink:href="#39" y="21.71"/><use xlink:href="#40" y="23.881"/><use xlink:href="#41" y="26.052"/><use xlink:href="#42" y="28.223"/><use xlink:href="#43" y="30.394"/><use xlink:href="#44" y="32.565"/><use xlink:href="#45" y="34.736"/><use xlink:href="#46" y="36.907"/><use xlink:href="#47" y="39.078"/><use xlink:href="#48" y="41.249"/><use xlink:href="#49" y="43.42"/><use xlink:href="#50" y="45.591"/><use xlink:href="#51" y="47.762"/><text x="1.002" y="51.603" class="e">exporte</text></svg><svg x="2000"><use xlink:href="#a"/><use xlink:href="#b" x="-.004" y="49.908"/><use xlink:href="#32"/><use xlink:href="#33" y="2.171"/><use xlink:href="#34" y="4.342"/><use xlink:href="#35" y="6.513"/><use xlink:href="#36" y="8.684"/><use xlink:href="#37" y="10.855"/><use xlink:href="#38" y="13.026"/><use xlink:href="#39" y="15.197"/><use xlink:href="#40" y="17.368"/><use xlink:href="#41" y="19.539"/><use xlink:href="#42" y="21.71"/><use xlink:href="#43" y="23.881"/><use xlink:href="#44" y="26.052"/><use xlink:href="#45" y="28.223"/><use xlink:href="#46" y="30.394"/><use xlink:href="#47" y="32.565"/><use xlink:href="#48" y="34.736"/><use xlink:href="#49" y="36.907"/><use xlink:href="#50" y="39.078"/><use xlink:href="#51" y="41.249"/><use xlink:href="#52" y="43.42"/><use xlink:href="#53" y="45.591"/><use xlink:href="#54" y="47.762"/></svg><svg x="2080"><use xlink:href="#a"/><use xlink:href="#b" x="28.996" y="49.908"/><use xlink:href="#32"/><use xlink:href="#33" y="2.171"/><use xlink:href="#34" y="4.342"/><use xlink:href="#35" y="6.513"/><use xlink:href="#36" y="8.684"/><use xlink:href="#37" y="10.855"/><use xlink:href="#38" y="13.026"/><use xlink:href="#39" y="15.197"/><use xlink:href="#40" y="17.368"/><use xlink:href="#41" y="19.539"/><use xlink:href="#42" y="21.71"/><use xlink:href="#43" y="23.881"/><use xlink:href="#44" y="26.052"/><use xlink:href="#45" y="28.223"/><use xlink:href="#46" y="30.394"/><use xlink:href="#47" y="32.565"/><use xlink:href="#48" y="34.736"/><use xlink:href="#49" y="36.907"/><use xlink:href="#50" y="39.078"/><use xlink:href="#51" y="41.249"/><use xlink:href="#52" y="43.42"/><use xlink:href="#53" y="45.591"/><use xlink:href="#54" y="47.762"/><use xlink:href="#1" y="49.933"/></svg><svg x="2160"><use xlink:href="#a"/><use xlink:href="#b" x="-.004" y="49.908"/><use xlink:href="#33"/><use xlink:href="#34" y="2.171"/><use xlink:href="#35" y="4.342"/><use xlink:href="#36" y="6.513"/><use xlink:href="#37" y="8.684"/><use xlink:href="#38" y="10.855"/><use xlink:href="#39" y="13.026"/><use xlink:href="#40" y="15.197"/><use xlink:href="#41" y="17.368"/><use xlink:href="#42" y="19.539"/><use xlink:href="#43" y="21.71"/><use xlink:href="#44" y="23.881"/><use xlink:href="#45" y="26.052"/><use xlink:href="#46" y="28.223"/><use xlink:href="#47" y="30.394"/><use xlink:href="#48" y="32.565"/><use xlink:href="#49" y="34.736"/><use xlink:href="#50" y="36.907"/><use xlink:href="#51" y="39.078"/><use xlink:href="#52" y="41.249"/><use xlink:href="#53" y="43.42"/><use xlink:href="#54" y="45.591"/><text y="49.432" class="c">~/go/src/github.com/cweill</text><text x="27.054" y="49.432" class="d">❯</text><text x="29.058" y="49.432" class="e">exit</text></svg></svg></g></g></svg></svg>