<svg xmlns="http://www.w3.org/2000/svg" xmlns:xlink="http://www.w3.org/1999/xlink" width="860" height="521.04"><rect width="860" height="521.04" rx="0" ry="0" class="a"/><svg height="521.04" viewBox="0 0 86 52.104" width="860" xmlns="http://www.w3.org/2000/svg" xmlns:xlink="http://www.w3.org/1999/xlink"><style>@keyframes j{0%{transform:translateX(0)}.2%{transform:translateX(-86px)}5.1%{transform:translateX(-172px)}9.7%{transform:translateX(-258px)}10.2%{transform:translateX(-344px)}11.5%{transform:translateX(-430px)}12.3%{transform:translateX(-516px)}13%{transform:translateX(-602px)}13.6%{transform:translateX(-688px)}14.5%{transform:translateX(-774px)}15.7%{transform:translateX(-860px)}16.6%{transform:translateX(-946px)}17.7%{transform:translateX(-1032px)}18.2%{transform:translateX(-1118px)}19.2%{transform:translateX(-1204px)}19.8%{transform:translateX(-1290px)}20.9%{transform:translateX(-1376px)}22.2%{transform:translateX(-1462px)}22.9%{transform:translateX(-1548px)}24%{transform:translateX(-1634px)}24.9%{transform:translateX(-1720px)}25.5%{transform:translateX(-1806px)}26.8%{transform:translateX(-1892px)}27.4%{transform:translateX(-1978px)}28.3%{transform:translateX(-2064px)}29.2%{transform:translateX(-2150px)}29.8%{transform:translateX(-2236px)}30.5%{transform:translateX(-2322px)}31.9%{transform:translateX(-2408px)}32.7%{transform:translateX(-2494px)}35.1%{transform:translateX(-2580px)}41.9%{transform:translateX(-2666px)}43%{transform:translateX(-2752px)}43.9%{transform:translateX(-2838px)}48.6%{transform:translateX(-2924px)}49.7%{transform:translateX(-3010px)}50.8%{transform:translateX(-3096px)}55.4%{transform:translateX(-3182px)}55.6%{transform:translateX(-4042px)}55.7%{transform:translateX(-4816px)}55.9%{transform:translateX(-4902px)}to{transform:translateX(-4988px)}}.a{fill:#282d35}.c{fill:#444}.d{fill:#ffd75f;font-weight:700}.e{fill:#b9c0cb}.f{fill:#dbab79}.g{fill:#a8cc8c}</style><g font-size="1.67" font-family="Monaco,Consolas,Menlo,'Bitstream Vera Sans Mono','Powerline Symbols',monospace"><defs><symbol id="1"><text y="1.67" class="c">~/go/src/github.com/cweill</text><text x="27.054" y="1.67" class="d">❯</text></symbol><symbol id="2"><text y="1.67" class="c">~/go/src/github.com/cweill</text><text x="27.054" y="1.67" class="d">❯</text><text x="29.058" y="1.67" class="e">revive</text></symbol><symbol id="3"><text y="1.67" class="c">~/go/src/github.com/cweill</text><text x="27.054" y="1.67" class="d">❯</text><text x="29.058" y="1.67" class="e">revive</text><text x="36.072" y="1.67" class="e">-formatter</text></symbol><symbol id="4"><text y="1.67" class="c">~/go/src/github.com/cweill</text><text x="27.054" y="1.67" class="d">❯</text><text x="29.058" y="1.67" class="e">revive</text><text x="36.072" y="1.67" class="e">-formatter</text><text x="47.094" y="1.67" class="e">friendly</text></symbol><symbol id="5"><text y="1.67" class="c">~/go/src/github.com/cweill</text><text x="27.054" y="1.67" class="d">❯</text><text x="29.058" y="1.67" class="e">revive</text><text x="36.072" y="1.67" class="e">-formatter</text><text x="47.094" y="1.67" class="e">friendly</text><text x="56.112" y="1.67" class="e">gotests/internal/...</text></symbol><symbol id="6"><text x="2.004" y="1.67" class="f">⚠</text><text x="5.01" y="1.67" class="e">error-strings</text><text x="20.04" y="1.67" class="g">error</text><text x="26.052" y="1.67" class="g">strings</text><text x="34.068" y="1.67" class="g">should</text><text x="41.082" y="1.67" class="g">not</text><text x="45.09" y="1.67" class="g">be</text><text x="48.096" y="1.67" class="g">capitalized</text><text x="60.12" y="1.67" class="g">or</text><text x="63.126" y="1.67" class="g">end</text><text x="67.134" y="1.67" class="g">with</text><text x="72.144" y="1.67" class="g">punctuation</text><text x="84.168" y="1.67" class="g">or</text></symbol><symbol id="7"><text x="1.002" y="1.67" class="g">a</text><text x="3.006" y="1.67" class="g">newline</text></symbol><symbol id="8"><text x="2.004" y="1.67" class="e">/Users/mgechev/go/src/github.com/cweill/gotests/internal/input/input.go:312:332</text></symbol><symbol id="9"><text x="2.004" y="1.67" class="e">/Users/mgechev/go/src/github.com/cweill/gotests/internal/input/input.go:582:603</text></symbol><symbol id="10"><text x="2.004" y="1.67" class="f">⚠</text><text x="5.01" y="1.67" class="e">exported</text><text x="15.03" y="1.67" class="g">comment</text><text x="23.046" y="1.67" class="g">on</text><text x="26.052" y="1.67" class="g">exported</text><text x="35.07" y="1.67" class="g">function</text><text x="44.088" y="1.67" class="g">Files</text><text x="50.1" y="1.67" class="g">should</text><text x="57.114" y="1.67" class="g">be</text><text x="60.12" y="1.67" class="g">of</text><text x="63.126" y="1.67" class="g">the</text><text x="67.134" y="1.67" class="g">form</text><text x="72.144" y="1.67" class="g">&quot;Files</text><text x="79.158" y="1.67" class="g">...&quot;</text></symbol><symbol id="11"><text x="2.004" y="1.67" class="e">/Users/mgechev/go/src/github.com/cweill/gotests/internal/input/input.go:105:178</text></symbol><symbol id="12"><text x="2.004" y="1.67" class="f">⚠</text><text x="5.01" y="1.67" class="e">exported</text><text x="15.03" y="1.67" class="g">exported</text><text x="24.048" y="1.67" class="g">type</text><text x="29.058" y="1.67" class="g">Options</text><text x="37.074" y="1.67" class="g">should</text><text x="44.088" y="1.67" class="g">have</text><text x="49.098" y="1.67" class="g">comment</text><text x="57.114" y="1.67" class="g">or</text><text x="60.12" y="1.67" class="g">be</text><text x="63.126" y="1.67" class="g">unexported</text></symbol><symbol id="13"><text x="2.004" y="1.67" class="e">/Users/mgechev/go/src/github.com/cweill/gotests/internal/output/output.go:205:259</text></symbol><symbol id="14"><text x="2.004" y="1.67" class="f">⚠</text><text x="5.01" y="1.67" class="e">exported</text><text x="15.03" y="1.67" class="g">exported</text><text x="24.048" y="1.67" class="g">function</text><text x="33.066" y="1.67" class="g">Process</text><text x="41.082" y="1.67" class="g">should</text><text x="48.096" y="1.67" class="g">have</text><text x="53.106" y="1.67" class="g">comment</text><text x="61.122" y="1.67" class="g">or</text><text x="64.128" y="1.67" class="g">be</text><text x="67.134" y="1.67" class="g">unexported</text></symbol><symbol id="15"><text x="2.004" y="1.67" class="e">/Users/mgechev/go/src/github.com/cweill/gotests/internal/output/output.go:261:763</text></symbol><symbol id="16"><text x="2.004" y="1.67" class="f">⚠</text><text x="5.01" y="1.67" class="e">exported</text><text x="15.03" y="1.67" class="g">exported</text><text x="24.048" y="1.67" class="g">function</text><text x="33.066" y="1.67" class="g">IsFileExist</text><text x="45.09" y="1.67" class="g">should</text><text x="52.104" y="1.67" class="g">have</text><text x="57.114" y="1.67" class="g">comment</text><text x="65.13" y="1.67" class="g">or</text><text x="68.136" y="1.67" class="g">be</text><text x="71.142" y="1.67" class="g">unexported</text></symbol><symbol id="17"><text x="2.004" y="1.67" class="e">/Users/mgechev/go/src/github.com/cweill/gotests/internal/output/output.go:765:856</text></symbol><symbol id="18"><text x="2.004" y="1.67" class="f">⚠</text><text x="5.01" y="1.67" class="e">exported</text><text x="15.03" y="1.67" class="g">exported</text><text x="24.048" y="1.67" class="g">function</text><text x="33.066" y="1.67" class="g">Header</text><text x="40.08" y="1.67" class="g">should</text><text x="47.094" y="1.67" class="g">have</text><text x="52.104" y="1.67" class="g">comment</text><text x="60.12" y="1.67" class="g">or</text><text x="63.126" y="1.67" class="g">be</text><text x="66.132" y="1.67" class="g">unexported</text></symbol><symbol id="19"><text x="2.004" y="1.67" class="e">/Users/mgechev/go/src/github.com/cweill/gotests/internal/render/render.go:1553:1723</text></symbol><symbol id="20"><text x="2.004" y="1.67" class="f">⚠</text><text x="5.01" y="1.67" class="e">exported</text><text x="15.03" y="1.67" class="g">exported</text><text x="24.048" y="1.67" class="g">function</text><text x="33.066" y="1.67" class="g">TestFunction</text><text x="46.092" y="1.67" class="g">should</text><text x="53.106" y="1.67" class="g">have</text><text x="58.116" y="1.67" class="g">comment</text><text x="66.132" y="1.67" class="g">or</text><text x="69.138" y="1.67" class="g">be</text><text x="72.144" y="1.67" class="g">unexported</text></symbol><symbol id="21"><text x="2.004" y="1.67" class="e">/Users/mgechev/go/src/github.com/cweill/gotests/internal/render/render.go:1725:2008</text></symbol><symbol id="22"><text x="2.004" y="1.67" class="f">⚠</text><text x="5.01" y="1.67" class="e">exported</text><text x="15.03" y="1.67" class="g">exported</text><text x="24.048" y="1.67" class="g">type</text><text x="29.058" y="1.67" class="g">Expression</text><text x="40.08" y="1.67" class="g">should</text><text x="47.094" y="1.67" class="g">have</text><text x="52.104" y="1.67" class="g">comment</text><text x="60.12" y="1.67" class="g">or</text><text x="63.126" y="1.67" class="g">be</text><text x="66.132" y="1.67" class="g">unexported</text></symbol><symbol id="23"><text x="2.004" y="1.67" class="e">/Users/mgechev/go/src/github.com/cweill/gotests/internal/models/models.go:55:165</text></symbol><symbol id="24"><text x="2.004" y="1.67" class="f">⚠</text><text x="5.01" y="1.67" class="e">exported</text><text x="15.03" y="1.67" class="g">exported</text><text x="24.048" y="1.67" class="g">type</text><text x="29.058" y="1.67" class="g">Field</text><text x="35.07" y="1.67" class="g">should</text><text x="42.084" y="1.67" class="g">have</text><text x="47.094" y="1.67" class="g">comment</text><text x="55.11" y="1.67" class="g">or</text><text x="58.116" y="1.67" class="g">be</text><text x="61.122" y="1.67" class="g">unexported</text></symbol><symbol id="25"><text x="2.004" y="1.67" class="e">/Users/mgechev/go/src/github.com/cweill/gotests/internal/models/models.go:330:390</text></symbol><symbol id="26"><text x="2.004" y="1.67" class="f">⚠</text><text x="5.01" y="1.67" class="e">exported</text><text x="15.03" y="1.67" class="g">exported</text><text x="24.048" y="1.67" class="g">method</text><text x="31.062" y="1.67" class="g">Field.IsWriter</text><text x="46.092" y="1.67" class="g">should</text><text x="53.106" y="1.67" class="g">have</text><text x="58.116" y="1.67" class="g">comment</text><text x="66.132" y="1.67" class="g">or</text><text x="69.138" y="1.67" class="g">be</text><text x="72.144" y="1.67" class="g">unexported</text></symbol><symbol id="27"><text x="2.004" y="1.67" class="e">/Users/mgechev/go/src/github.com/cweill/gotests/internal/models/models.go:392:451</text></symbol><symbol id="28"><text x="2.004" y="1.67" class="f">⚠</text><text x="5.01" y="1.67" class="e">exported</text><text x="15.03" y="1.67" class="g">exported</text><text x="24.048" y="1.67" class="g">method</text><text x="31.062" y="1.67" class="g">Field.IsStruct</text><text x="46.092" y="1.67" class="g">should</text><text x="53.106" y="1.67" class="g">have</text><text x="58.116" y="1.67" class="g">comment</text><text x="66.132" y="1.67" class="g">or</text><text x="69.138" y="1.67" class="g">be</text><text x="72.144" y="1.67" class="g">unexported</text></symbol><symbol id="29"><text x="2.004" y="1.67" class="e">/Users/mgechev/go/src/github.com/cweill/gotests/internal/models/models.go:453:543</text></symbol><symbol id="30"><text x="2.004" y="1.67" class="f">⚠</text><text x="5.01" y="1.67" class="e">exported</text><text x="15.03" y="1.67" class="g">exported</text><text x="24.048" y="1.67" class="g">method</text><text x="31.062" y="1.67" class="g">Field.IsBasicType</text><text x="49.098" y="1.67" class="g">should</text><text x="56.112" y="1.67" class="g">have</text><text x="61.122" y="1.67" class="g">comment</text><text x="69.138" y="1.67" class="g">or</text><text x="72.144" y="1.67" class="g">be</text><text x="75.15" y="1.67" class="g">unexported</text></symbol><symbol id="31"><text x="2.004" y="1.67" class="e">/Users/mgechev/go/src/github.com/cweill/gotests/internal/models/models.go:545:654</text></symbol><symbol id="32"><text x="2.004" y="1.67" class="f">⚠</text><text x="5.01" y="1.67" class="e">exported</text><text x="15.03" y="1.67" class="g">exported</text><text x="24.048" y="1.67" class="g">method</text><text x="31.062" y="1.67" class="g">Field.IsNamed</text><text x="45.09" y="1.67" class="g">should</text><text x="52.104" y="1.67" class="g">have</text><text x="57.114" y="1.67" class="g">comment</text><text x="65.13" y="1.67" class="g">or</text><text x="68.136" y="1.67" class="g">be</text><text x="71.142" y="1.67" class="g">unexported</text></symbol><symbol id="33"><text x="2.004" y="1.67" class="e">/Users/mgechev/go/src/github.com/cweill/gotests/internal/models/models.go:940:1012</text></symbol><symbol id="34"><text x="2.004" y="1.67" class="f">⚠</text><text x="5.01" y="1.67" class="e">exported</text><text x="15.03" y="1.67" class="g">exported</text><text x="24.048" y="1.67" class="g">method</text><text x="31.062" y="1.67" class="g">Field.ShortName</text><text x="47.094" y="1.67" class="g">should</text><text x="54.108" y="1.67" class="g">have</text><text x="59.118" y="1.67" class="g">comment</text><text x="67.134" y="1.67" class="g">or</text><text x="70.14" y="1.67" class="g">be</text><text x="73.146" y="1.67" class="g">unexported</text></symbol><symbol id="35"><text x="2.004" y="1.67" class="e">/Users/mgechev/go/src/github.com/cweill/gotests/internal/models/models.go:1014:1109</text></symbol><symbol id="36"><text x="2.004" y="1.67" class="f">⚠</text><text x="5.01" y="1.67" class="e">exported</text><text x="15.03" y="1.67" class="g">exported</text><text x="24.048" y="1.67" class="g">type</text><text x="29.058" y="1.67" class="g">Receiver</text><text x="38.076" y="1.67" class="g">should</text><text x="45.09" y="1.67" class="g">have</text><text x="50.1" y="1.67" class="g">comment</text><text x="58.116" y="1.67" class="g">or</text><text x="61.122" y="1.67" class="g">be</text><text x="64.128" y="1.67" class="g">unexported</text></symbol><symbol id="37"><text x="2.004" y="1.67" class="e">/Users/mgechev/go/src/github.com/cweill/gotests/internal/models/models.go:1116:1160</text></symbol><symbol id="38"><text x="2.004" y="1.67" class="f">⚠</text><text x="5.01" y="1.67" class="e">exported</text><text x="15.03" y="1.67" class="g">exported</text><text x="24.048" y="1.67" class="g">type</text><text x="29.058" y="1.67" class="g">Function</text><text x="38.076" y="1.67" class="g">should</text><text x="45.09" y="1.67" class="g">have</text><text x="50.1" y="1.67" class="g">comment</text><text x="58.116" y="1.67" class="g">or</text><text x="61.122" y="1.67" class="g">be</text><text x="64.128" y="1.67" class="g">unexported</text></symbol><symbol id="39"><text x="2.004" y="1.67" class="e">/Users/mgechev/go/src/github.com/cweill/gotests/internal/models/models.go:1167:1315</text></symbol><symbol id="40"><text x="2.004" y="1.67" class="f">⚠</text><text x="5.01" y="1.67" class="e">exported</text><text x="15.03" y="1.67" class="g">exported</text><text x="24.048" y="1.67" class="g">method</text><text x="31.062" y="1.67" class="g">Function.TestParameters</text><text x="55.11" y="1.67" class="g">should</text><text x="62.124" y="1.67" class="g">have</text><text x="67.134" y="1.67" class="g">comment</text><text x="75.15" y="1.67" class="g">or</text><text x="78.156" y="1.67" class="g">be</text><text x="81.162" y="1.67" class="g">unexp</text></symbol><symbol id="41"><text y="1.67" class="g">orted</text></symbol><symbol id="42"><text x="2.004" y="1.67" class="e">/Users/mgechev/go/src/github.com/cweill/gotests/internal/models/models.go:1317:1487</text></symbol><symbol id="43"><text x="2.004" y="1.67" class="f">⚠</text><text x="5.01" y="1.67" class="e">exported</text><text x="15.03" y="1.67" class="g">exported</text><text x="24.048" y="1.67" class="g">method</text><text x="31.062" y="1.67" class="g">Function.TestResults</text><text x="52.104" y="1.67" class="g">should</text><text x="59.118" y="1.67" class="g">have</text><text x="64.128" y="1.67" class="g">comment</text><text x="72.144" y="1.67" class="g">or</text><text x="75.15" y="1.67" class="g">be</text><text x="78.156" y="1.67" class="g">unexport</text></symbol><symbol id="44"><text y="1.67" class="g">ed</text></symbol><symbol id="45"><text x="2.004" y="1.67" class="e">/Users/mgechev/go/src/github.com/cweill/gotests/internal/models/models.go:1489:1836</text></symbol><symbol id="46"><text x="2.004" y="1.67" class="f">⚠</text><text x="5.01" y="1.67" class="e">exported</text><text x="15.03" y="1.67" class="g">exported</text><text x="24.048" y="1.67" class="g">method</text><text x="31.062" y="1.67" class="g">Function.ReturnsMultiple</text><text x="56.112" y="1.67" class="g">should</text><text x="63.126" y="1.67" class="g">have</text><text x="68.136" y="1.67" class="g">comment</text><text x="76.152" y="1.67" class="g">or</text><text x="79.158" y="1.67" class="g">be</text><text x="82.164" y="1.67" class="g">unex</text></symbol><symbol id="47"><text y="1.67" class="g">ported</text></symbol><symbol id="48"><text x="2.004" y="1.67" class="e">/Users/mgechev/go/src/github.com/cweill/gotests/internal/models/models.go:1838:1910</text></symbol><symbol id="49"><text x="2.004" y="1.67" class="f">⚠</text><text x="5.01" y="1.67" class="e">exported</text><text x="15.03" y="1.67" class="g">exported</text><text x="24.048" y="1.67" class="g">method</text><text x="31.062" y="1.67" class="g">Function.OnlyReturnsOneValue</text><text x="60.12" y="1.67" class="g">should</text><text x="67.134" y="1.67" class="g">have</text><text x="72.144" y="1.67" class="g">comment</text><text x="80.16" y="1.67" class="g">or</text><text x="83.166" y="1.67" class="g">be</text></symbol><symbol id="50"><text y="1.67" class="g">unexported</text></symbol><symbol id="51"><text x="2.004" y="1.67" class="e">/Users/mgechev/go/src/github.com/cweill/gotests/internal/models/models.go:1912:2008</text></symbol><symbol id="52"><text x="2.004" y="1.67" class="f">⚠</text><text x="5.01" y="1.67" class="e">package-comments</text><text x="23.046" y="1.67" class="g">package</text><text x="31.062" y="1.67" class="g">comment</text><text x="39.078" y="1.67" class="g">should</text><text x="46.092" y="1.67" class="g">be</text><text x="49.098" y="1.67" class="g">of</text><text x="52.104" y="1.67" class="g">the</text><text x="56.112" y="1.67" class="g">form</text><text x="61.122" y="1.67" class="g">&quot;Package</text><text x="70.14" y="1.67" class="g">goparser</text><text x="79.158" y="1.67" class="g">...&quot;</text></symbol><symbol id="53"><text x="2.004" y="1.67" class="e">/Users/mgechev/go/src/github.com/cweill/gotests/internal/goparser/goparser.go:0:144</text></symbol><symbol id="54"><text x="2.004" y="1.67" class="f">⚠</text><text x="5.01" y="1.67" class="e">exported</text><text x="15.03" y="1.67" class="g">exported</text><text x="24.048" y="1.67" class="g">method</text><text x="31.062" y="1.67" class="g">Function.OnlyReturnsError</text><text x="57.114" y="1.67" class="g">should</text><text x="64.128" y="1.67" class="g">have</text><text x="69.138" y="1.67" class="g">comment</text><text x="77.154" y="1.67" class="g">or</text><text x="80.16" y="1.67" class="g">be</text><text x="83.166" y="1.67" class="g">une</text></symbol><symbol id="55"><text y="1.67" class="g">xported</text></symbol><symbol id="56"><text x="2.004" y="1.67" class="e">/Users/mgechev/go/src/github.com/cweill/gotests/internal/models/models.go:2010:2102</text></symbol><symbol id="57"><text x="2.004" y="1.67" class="f">⚠</text><text x="5.01" y="1.67" class="e">exported</text><text x="15.03" y="1.67" class="g">exported</text><text x="24.048" y="1.67" class="g">method</text><text x="31.062" y="1.67" class="g">Function.FullName</text><text x="49.098" y="1.67" class="g">should</text><text x="56.112" y="1.67" class="g">have</text><text x="61.122" y="1.67" class="g">comment</text><text x="69.138" y="1.67" class="g">or</text><text x="72.144" y="1.67" class="g">be</text><text x="75.15" y="1.67" class="g">unexported</text></symbol><symbol id="58"><text x="2.004" y="1.67" class="e">/Users/mgechev/go/src/github.com/cweill/gotests/internal/models/models.go:2104:2262</text></symbol><symbol id="59"><text x="2.004" y="1.67" class="f">⚠</text><text x="5.01" y="1.67" class="e">exported</text><text x="15.03" y="1.67" class="g">exported</text><text x="24.048" y="1.67" class="g">method</text><text x="31.062" y="1.67" class="g">Function.TestName</text><text x="49.098" y="1.67" class="g">should</text><text x="56.112" y="1.67" class="g">have</text><text x="61.122" y="1.67" class="g">comment</text><text x="69.138" y="1.67" class="g">or</text><text x="72.144" y="1.67" class="g">be</text><text x="75.15" y="1.67" class="g">unexported</text></symbol><symbol id="60"><text x="2.004" y="1.67" class="e">/Users/mgechev/go/src/github.com/cweill/gotests/internal/models/models.go:2264:2659</text></symbol><symbol id="61"><text x="2.004" y="1.67" class="f">⚠</text><text x="5.01" y="1.67" class="e">exported</text><text x="15.03" y="1.67" class="g">exported</text><text x="24.048" y="1.67" class="g">method</text><text x="31.062" y="1.67" class="g">Function.IsNaked</text><text x="48.096" y="1.67" class="g">should</text><text x="55.11" y="1.67" class="g">have</text><text x="60.12" y="1.67" class="g">comment</text><text x="68.136" y="1.67" class="g">or</text><text x="71.142" y="1.67" class="g">be</text><text x="74.148" y="1.67" class="g">unexported</text></symbol><symbol id="62"><text x="2.004" y="1.67" class="e">/Users/mgechev/go/src/github.com/cweill/gotests/internal/models/models.go:2661:2773</text></symbol><symbol id="63"><text x="2.004" y="1.67" class="f">⚠</text><text x="5.01" y="1.67" class="e">exported</text><text x="15.03" y="1.67" class="g">exported</text><text x="24.048" y="1.67" class="g">type</text><text x="29.058" y="1.67" class="g">Import</text><text x="36.072" y="1.67" class="g">should</text><text x="43.086" y="1.67" class="g">have</text><text x="48.096" y="1.67" class="g">comment</text><text x="56.112" y="1.67" class="g">or</text><text x="59.118" y="1.67" class="g">be</text><text x="62.124" y="1.67" class="g">unexported</text></symbol><symbol id="64"><text x="2.004" y="1.67" class="e">/Users/mgechev/go/src/github.com/cweill/gotests/internal/models/models.go:2780:2816</text></symbol><symbol id="65"><text x="2.004" y="1.67" class="f">⚠</text><text x="5.01" y="1.67" class="e">exported</text><text x="15.03" y="1.67" class="g">exported</text><text x="24.048" y="1.67" class="g">type</text><text x="29.058" y="1.67" class="g">Header</text><text x="36.072" y="1.67" class="g">should</text><text x="43.086" y="1.67" class="g">have</text><text x="48.096" y="1.67" class="g">comment</text><text x="56.112" y="1.67" class="g">or</text><text x="59.118" y="1.67" class="g">be</text><text x="62.124" y="1.67" class="g">unexported</text></symbol><symbol id="66"><text x="2.004" y="1.67" class="e">/Users/mgechev/go/src/github.com/cweill/gotests/internal/models/models.go:2823:2913</text></symbol><symbol id="67"><text x="2.004" y="1.67" class="f">⚠</text><text x="5.01" y="1.67" class="e">exported</text><text x="15.03" y="1.67" class="g">exported</text><text x="24.048" y="1.67" class="g">type</text><text x="29.058" y="1.67" class="g">Path</text><text x="34.068" y="1.67" class="g">should</text><text x="41.082" y="1.67" class="g">have</text><text x="46.092" y="1.67" class="g">comment</text><text x="54.108" y="1.67" class="g">or</text><text x="57.114" y="1.67" class="g">be</text><text x="60.12" y="1.67" class="g">unexported</text></symbol><symbol id="68"><text x="2.004" y="1.67" class="e">/Users/mgechev/go/src/github.com/cweill/gotests/internal/models/models.go:2920:2931</text></symbol><symbol id="69"><text x="2.004" y="1.67" class="f">⚠</text><text x="5.01" y="1.67" class="e">exported</text><text x="15.03" y="1.67" class="g">exported</text><text x="24.048" y="1.67" class="g">method</text><text x="31.062" y="1.67" class="g">Path.TestPath</text><text x="45.09" y="1.67" class="g">should</text><text x="52.104" y="1.67" class="g">have</text><text x="57.114" y="1.67" class="g">comment</text><text x="65.13" y="1.67" class="g">or</text><text x="68.136" y="1.67" class="g">be</text><text x="71.142" y="1.67" class="g">unexported</text></symbol><symbol id="70"><text x="2.004" y="1.67" class="e">/Users/mgechev/go/src/github.com/cweill/gotests/internal/models/models.go:2933:3070</text></symbol><symbol id="71"><text x="2.004" y="1.67" class="f">⚠</text><text x="5.01" y="1.67" class="e">exported</text><text x="15.03" y="1.67" class="g">exported</text><text x="24.048" y="1.67" class="g">method</text><text x="31.062" y="1.67" class="g">Path.IsTestPath</text><text x="47.094" y="1.67" class="g">should</text><text x="54.108" y="1.67" class="g">have</text><text x="59.118" y="1.67" class="g">comment</text><text x="67.134" y="1.67" class="g">or</text><text x="70.14" y="1.67" class="g">be</text><text x="73.146" y="1.67" class="g">unexported</text></symbol><symbol id="72"><text x="2.004" y="1.67" class="e">/Users/mgechev/go/src/github.com/cweill/gotests/internal/models/models.go:3072:3156</text></symbol><symbol id="73"><text y="1.67" class="f">⚠</text><text x="2.004" y="1.67" class="f">31</text><text x="5.01" y="1.67" class="f">problems</text><text x="14.028" y="1.67" class="f">(0</text><text x="17.034" y="1.67" class="f">errors,</text><text x="25.05" y="1.67" class="f">31</text><text x="28.056" y="1.67" class="f">warnings)</text></symbol><symbol id="74"><text y="1.67" class="f">Warnings:</text></symbol><symbol id="75"><text x="2.004" y="1.67" class="g">28</text><text x="6.012" y="1.67" class="e">exported</text></symbol><symbol id="76"><text x="2.004" y="1.67" class="g">2</text><text x="6.012" y="1.67" class="e">error-strings</text></symbol><symbol id="77"><text x="2.004" y="1.67" class="g">1</text><text x="6.012" y="1.67" class="e">package-comments</text></symbol><symbol id="a"><path fill="transparent" d="M0 0h86v24H0z"/></symbol><symbol id="b"><path fill="#6f7683" d="M0 0h1.102v2.171H0z"/></symbol></defs><path class="a" d="M0 0h86v52.104H0z"/><g style="animation-duration:13.030073s;animation-iteration-count:infinite;animation-name:j;animation-timing-function:steps(1,end)"><svg width="5074"><svg><use xlink:href="#a"/><use xlink:href="#b" x="-.004"/></svg><svg x="86"><use xlink:href="#a"/><use xlink:href="#b" x="-.004"/></svg><svg x="172"><use xlink:href="#a"/><use xlink:href="#b" x="28.996"/><use xlink:href="#1"/></svg><svg x="258"><use xlink:href="#a"/><use xlink:href="#b" x="29.996"/><text y="1.67" class="c">~/go/src/github.com/cweill</text><text x="27.054" y="1.67" class="d">❯</text><text x="29.058" y="1.67" class="e">r</text></svg><svg x="344"><use xlink:href="#a"/><use xlink:href="#b" x="30.996"/><text y="1.67" class="c">~/go/src/github.com/cweill</text><text x="27.054" y="1.67" class="d">❯</text><text x="29.058" y="1.67" class="e">re</text></svg><svg x="430"><use xlink:href="#a"/><use xlink:href="#b" x="31.996"/><text y="1.67" class="c">~/go/src/github.com/cweill</text><text x="27.054" y="1.67" class="d">❯</text><text x="29.058" y="1.67" class="e">rev</text></svg><svg x="516"><use xlink:href="#a"/><use xlink:href="#b" x="32.996"/><text y="1.67" class="c">~/go/src/github.com/cweill</text><text x="27.054" y="1.67" class="d">❯</text><text x="29.058" y="1.67" class="e">revi</text></svg><svg x="602"><use xlink:href="#a"/><use xlink:href="#b" x="33.996"/><text y="1.67" class="c">~/go/src/github.com/cweill</text><text x="27.054" y="1.67" class="d">❯</text><text x="29.058" y="1.67" class="e">reviv</text></svg><svg x="688"><use xlink:href="#a"/><use xlink:href="#b" x="34.996"/><use xlink:href="#2"/></svg><svg x="774"><use xlink:href="#a"/><use xlink:href="#b" x="35.996"/><use xlink:href="#2"/></svg><svg x="860"><use xlink:href="#a"/><use xlink:href="#b" x="36.996"/><text y="1.67" class="c">~/go/src/github.com/cweill</text><text x="27.054" y="1.67" class="d">❯</text><text x="29.058" y="1.67" class="e">revive</text><text x="36.072" y="1.67" class="e">-</text></svg><svg x="946"><use xlink:href="#a"/><use xlink:href="#b" x="37.996"/><text y="1.67" class="c">~/go/src/github.com/cweill</text><text x="27.054" y="1.67" class="d">❯</text><text x="29.058" y="1.67" class="e">revive</text><text x="36.072" y="1.67" class="e">-f</text></svg><svg x="1032"><use xlink:href="#a"/><use xlink:href="#b" x="38.996"/><text y="1.67" class="c">~/go/src/github.com/cweill</text><text x="27.054" y="1.67" class="d">❯</text><text x="29.058" y="1.67" class="e">revive</text><text x="36.072" y="1.67" class="e">-fo</text></svg><svg x="1118"><use xlink:href="#a"/><use xlink:href="#b" x="39.996"/><text y="1.67" class="c">~/go/src/github.com/cweill</text><text x="27.054" y="1.67" class="d">❯</text><text x="29.058" y="1.67" class="e">revive</text><text x="36.072" y="1.67" class="e">-for</text></svg><svg x="1204"><use xlink:href="#a"/><use xlink:href="#b" x="40.996"/><text y="1.67" class="c">~/go/src/github.com/cweill</text><text x="27.054" y="1.67" class="d">❯</text><text x="29.058" y="1.67" class="e">revive</text><text x="36.072" y="1.67" class="e">-form</text></svg><svg x="1290"><use xlink:href="#a"/><use xlink:href="#b" x="41.996"/><text y="1.67" class="c">~/go/src/github.com/cweill</text><text x="27.054" y="1.67" class="d">❯</text><text x="29.058" y="1.67" class="e">revive</text><text x="36.072" y="1.67" class="e">-forma</text></svg><svg x="1376"><use xlink:href="#a"/><use xlink:href="#b" x="42.996"/><text y="1.67" class="c">~/go/src/github.com/cweill</text><text x="27.054" y="1.67" class="d">❯</text><text x="29.058" y="1.67" class="e">revive</text><text x="36.072" y="1.67" class="e">-format</text></svg><svg x="1462"><use xlink:href="#a"/><use xlink:href="#b" x="43.996"/><text y="1.67" class="c">~/go/src/github.com/cweill</text><text x="27.054" y="1.67" class="d">❯</text><text x="29.058" y="1.67" class="e">revive</text><text x="36.072" y="1.67" class="e">-formatt</text></svg><svg x="1548"><use xlink:href="#a"/><use xlink:href="#b" x="44.996"/><text y="1.67" class="c">~/go/src/github.com/cweill</text><text x="27.054" y="1.67" class="d">❯</text><text x="29.058" y="1.67" class="e">revive</text><text x="36.072" y="1.67" class="e">-formatte</text></svg><svg x="1634"><use xlink:href="#a"/><use xlink:href="#b" x="45.996"/><use xlink:href="#3"/></svg><svg x="1720"><use xlink:href="#a"/><use xlink:href="#b" x="46.996"/><use xlink:href="#3"/></svg><svg x="1806"><use xlink:href="#a"/><use xlink:href="#b" x="47.996"/><text y="1.67" class="c">~/go/src/github.com/cweill</text><text x="27.054" y="1.67" class="d">❯</text><text x="29.058" y="1.67" class="e">revive</text><text x="36.072" y="1.67" class="e">-formatter</text><text x="47.094" y="1.67" class="e">f</text></svg><svg x="1892"><use xlink:href="#a"/><use xlink:href="#b" x="48.996"/><text y="1.67" class="c">~/go/src/github.com/cweill</text><text x="27.054" y="1.67" class="d">❯</text><text x="29.058" y="1.67" class="e">revive</text><text x="36.072" y="1.67" class="e">-formatter</text><text x="47.094" y="1.67" class="e">fr</text></svg><svg x="1978"><use xlink:href="#a"/><use xlink:href="#b" x="49.996"/><text y="1.67" class="c">~/go/src/github.com/cweill</text><text x="27.054" y="1.67" class="d">❯</text><text x="29.058" y="1.67" class="e">revive</text><text x="36.072" y="1.67" class="e">-formatter</text><text x="47.094" y="1.67" class="e">fri</text></svg><svg x="2064"><use xlink:href="#a"/><use xlink:href="#b" x="50.996"/><text y="1.67" class="c">~/go/src/github.com/cweill</text><text x="27.054" y="1.67" class="d">❯</text><text x="29.058" y="1.67" class="e">revive</text><text x="36.072" y="1.67" class="e">-formatter</text><text x="47.094" y="1.67" class="e">frie</text></svg><svg x="2150"><use xlink:href="#a"/><use xlink:href="#b" x="51.996"/><text y="1.67" class="c">~/go/src/github.com/cweill</text><text x="27.054" y="1.67" class="d">❯</text><text x="29.058" y="1.67" class="e">revive</text><text x="36.072" y="1.67" class="e">-formatter</text><text x="47.094" y="1.67" class="e">frien</text></svg><svg x="2236"><use xlink:href="#a"/><use xlink:href="#b" x="52.996"/><text y="1.67" class="c">~/go/src/github.com/cweill</text><text x="27.054" y="1.67" class="d">❯</text><text x="29.058" y="1.67" class="e">revive</text><text x="36.072" y="1.67" class="e">-formatter</text><text x="47.094" y="1.67" class="e">friend</text></svg><svg x="2322"><use xlink:href="#a"/><use xlink:href="#b" x="53.996"/><text y="1.67" class="c">~/go/src/github.com/cweill</text><text x="27.054" y="1.67" class="d">❯</text><text x="29.058" y="1.67" class="e">revive</text><text x="36.072" y="1.67" class="e">-formatter</text><text x="47.094" y="1.67" class="e">friendl</text></svg><svg x="2408"><use xlink:href="#a"/><use xlink:href="#b" x="54.996"/><use xlink:href="#4"/></svg><svg x="2494"><use xlink:href="#a"/><use xlink:href="#b" x="55.996"/><use xlink:href="#4"/></svg><svg x="2580"><use xlink:href="#a"/><use xlink:href="#b" x="63.996"/><text y="1.67" class="c">~/go/src/github.com/cweill</text><text x="27.054" y="1.67" class="d">❯</text><text x="29.058" y="1.67" class="e">revive</text><text x="36.072" y="1.67" class="e">-formatter</text><text x="47.094" y="1.67" class="e">friendly</text><text x="56.112" y="1.67" class="e">gotests/</text></svg><svg x="2666"><use xlink:href="#a"/><use xlink:href="#b" x="64.996"/><text y="1.67" class="c">~/go/src/github.com/cweill</text><text x="27.054" y="1.67" class="d">❯</text><text x="29.058" y="1.67" class="e">revive</text><text x="36.072" y="1.67" class="e">-formatter</text><text x="47.094" y="1.67" class="e">friendly</text><text x="56.112" y="1.67" class="e">gotests/i</text></svg><svg x="2752"><use xlink:href="#a"/><use xlink:href="#b" x="65.996"/><text y="1.67" class="c">~/go/src/github.com/cweill</text><text x="27.054" y="1.67" class="d">❯</text><text x="29.058" y="1.67" class="e">revive</text><text x="36.072" y="1.67" class="e">-formatter</text><text x="47.094" y="1.67" class="e">friendly</text><text x="56.112" y="1.67" class="e">gotests/in</text></svg><svg x="2838"><use xlink:href="#a"/><use xlink:href="#b" x="72.996"/><text y="1.67" class="c">~/go/src/github.com/cweill</text><text x="27.054" y="1.67" class="d">❯</text><text x="29.058" y="1.67" class="e">revive</text><text x="36.072" y="1.67" class="e">-formatter</text><text x="47.094" y="1.67" class="e">friendly</text><text x="56.112" y="1.67" class="e">gotests/internal/</text></svg><svg x="2924"><use xlink:href="#a"/><use xlink:href="#b" x="73.996"/><text y="1.67" class="c">~/go/src/github.com/cweill</text><text x="27.054" y="1.67" class="d">❯</text><text x="29.058" y="1.67" class="e">revive</text><text x="36.072" y="1.67" class="e">-formatter</text><text x="47.094" y="1.67" class="e">friendly</text><text x="56.112" y="1.67" class="e">gotests/internal/.</text></svg><svg x="3010"><use xlink:href="#a"/><use xlink:href="#b" x="74.996"/><text y="1.67" class="c">~/go/src/github.com/cweill</text><text x="27.054" y="1.67" class="d">❯</text><text x="29.058" y="1.67" class="e">revive</text><text x="36.072" y="1.67" class="e">-formatter</text><text x="47.094" y="1.67" class="e">friendly</text><text x="56.112" y="1.67" class="e">gotests/internal/..</text></svg><svg x="3096"><use xlink:href="#a"/><use xlink:href="#b" x="75.996"/><use xlink:href="#5"/></svg><svg x="3182"><use xlink:href="#a"/><use xlink:href="#b" x="-.004" y="2.146"/><use xlink:href="#5"/></svg><svg x="3268"><use xlink:href="#a"/><use xlink:href="#b" x="-.004" y="10.83"/><use xlink:href="#5"/><use xlink:href="#6" y="2.171"/><use xlink:href="#7" y="4.342"/><use xlink:href="#8" y="6.513"/></svg><svg x="3354"><use xlink:href="#a"/><use xlink:href="#b" x="-.004" y="19.514"/><use xlink:href="#5"/><use xlink:href="#6" y="2.171"/><use xlink:href="#7" y="4.342"/><use xlink:href="#8" y="6.513"/><use xlink:href="#6" y="10.855"/><use xlink:href="#7" y="13.026"/><use xlink:href="#9" y="15.197"/></svg><svg x="3440"><use xlink:href="#a"/><use xlink:href="#b" x="-.004" y="26.027"/><use xlink:href="#5"/><use xlink:href="#6" y="2.171"/><use xlink:href="#7" y="4.342"/><use xlink:href="#8" y="6.513"/><use xlink:href="#6" y="10.855"/><use xlink:href="#7" y="13.026"/><use xlink:href="#9" y="15.197"/><use xlink:href="#10" y="19.539"/><use xlink:href="#11" y="21.71"/></svg><svg x="3526"><use xlink:href="#a"/><use xlink:href="#b" x="-.004" y="49.908"/><use xlink:href="#6"/><use xlink:href="#7" y="2.171"/><use xlink:href="#8" y="4.342"/><use xlink:href="#6" y="8.684"/><use xlink:href="#7" y="10.855"/><use xlink:href="#9" y="13.026"/><use xlink:href="#10" y="17.368"/><use xlink:href="#11" y="19.539"/><use xlink:href="#12" y="23.881"/><use xlink:href="#13" y="26.052"/><use xlink:href="#14" y="30.394"/><use xlink:href="#15" y="32.565"/><use xlink:href="#16" y="36.907"/><use xlink:href="#17" y="39.078"/><use xlink:href="#18" y="43.42"/><use xlink:href="#19" y="45.591"/></svg><svg x="3612"><use xlink:href="#a"/><use xlink:href="#b" x="-.004" y="49.908"/><use xlink:href="#6" y="2.171"/><use xlink:href="#7" y="4.342"/><use xlink:href="#9" y="6.513"/><use xlink:href="#10" y="10.855"/><use xlink:href="#11" y="13.026"/><use xlink:href="#12" y="17.368"/><use xlink:href="#13" y="19.539"/><use xlink:href="#14" y="23.881"/><use xlink:href="#15" y="26.052"/><use xlink:href="#16" y="30.394"/><use xlink:href="#17" y="32.565"/><use xlink:href="#18" y="36.907"/><use xlink:href="#19" y="39.078"/><use xlink:href="#20" y="43.42"/><use xlink:href="#21" y="45.591"/></svg><svg x="3698"><use xlink:href="#a"/><use xlink:href="#b" x="-.004" y="49.908"/><use xlink:href="#9"/><use xlink:href="#10" y="4.342"/><use xlink:href="#11" y="6.513"/><use xlink:href="#12" y="10.855"/><use xlink:href="#13" y="13.026"/><use xlink:href="#14" y="17.368"/><use xlink:href="#15" y="19.539"/><use xlink:href="#16" y="23.881"/><use xlink:href="#17" y="26.052"/><use xlink:href="#18" y="30.394"/><use xlink:href="#19" y="32.565"/><use xlink:href="#20" y="36.907"/><use xlink:href="#21" y="39.078"/><use xlink:href="#22" y="43.42"/><use xlink:href="#23" y="45.591"/></svg><svg x="3784"><use xlink:href="#a"/><use xlink:href="#b" x="-.004" y="49.908"/><use xlink:href="#15"/><use xlink:href="#16" y="4.342"/><use xlink:href="#17" y="6.513"/><use xlink:href="#18" y="10.855"/><use xlink:href="#19" y="13.026"/><use xlink:href="#20" y="17.368"/><use xlink:href="#21" y="19.539"/><use xlink:href="#22" y="23.881"/><use xlink:href="#23" y="26.052"/><use xlink:href="#24" y="30.394"/><use xlink:href="#25" y="32.565"/><use xlink:href="#26" y="36.907"/><use xlink:href="#27" y="39.078"/><use xlink:href="#28" y="43.42"/><use xlink:href="#29" y="45.591"/></svg><svg x="3870"><use xlink:href="#a"/><use xlink:href="#b" x="-.004" y="49.908"/><use xlink:href="#22" y="2.171"/><use xlink:href="#23" y="4.342"/><use xlink:href="#24" y="8.684"/><use xlink:href="#25" y="10.855"/><use xlink:href="#26" y="15.197"/><use xlink:href="#27" y="17.368"/><use xlink:href="#28" y="21.71"/><use xlink:href="#29" y="23.881"/><use xlink:href="#30" y="28.223"/><use xlink:href="#31" y="32.565"/><use xlink:href="#32" y="36.907"/><use xlink:href="#33" y="39.078"/><use xlink:href="#34" y="43.42"/><use xlink:href="#35" y="45.591"/></svg><svg x="3956"><use xlink:href="#a"/><use xlink:href="#b" x="-.004" y="49.908"/><use xlink:href="#28"/><use xlink:href="#29" y="2.171"/><use xlink:href="#30" y="6.513"/><use xlink:href="#31" y="10.855"/><use xlink:href="#32" y="15.197"/><use xlink:href="#33" y="17.368"/><use xlink:href="#34" y="21.71"/><use xlink:href="#35" y="23.881"/><use xlink:href="#36" y="28.223"/><use xlink:href="#37" y="30.394"/><use xlink:href="#38" y="34.736"/><use xlink:href="#39" y="36.907"/><use xlink:href="#40" y="41.249"/><use xlink:href="#41" y="43.42"/><use xlink:href="#42" y="45.591"/></svg><svg x="4042"><use xlink:href="#a"/><use xlink:href="#b" x="-.004" y="49.908"/><use xlink:href="#33"/><use xlink:href="#34" y="4.342"/><use xlink:href="#35" y="6.513"/><use xlink:href="#36" y="10.855"/><use xlink:href="#37" y="13.026"/><use xlink:href="#38" y="17.368"/><use xlink:href="#39" y="19.539"/><use xlink:href="#40" y="23.881"/><use xlink:href="#41" y="26.052"/><use xlink:href="#42" y="28.223"/><use xlink:href="#43" y="32.565"/><use xlink:href="#44" y="34.736"/><use xlink:href="#45" y="36.907"/><use xlink:href="#46" y="41.249"/><use xlink:href="#47" y="43.42"/><use xlink:href="#48" y="45.591"/></svg><svg x="4128"><use xlink:href="#a"/><use xlink:href="#b" x="84.996" y="49.908"/><use xlink:href="#39"/><use xlink:href="#40" y="4.342"/><use xlink:href="#41" y="6.513"/><use xlink:href="#42" y="8.684"/><use xlink:href="#43" y="13.026"/><use xlink:href="#44" y="15.197"/><use xlink:href="#45" y="17.368"/><use xlink:href="#46" y="21.71"/><use xlink:href="#47" y="23.881"/><use xlink:href="#48" y="26.052"/><use xlink:href="#49" y="30.394"/><use xlink:href="#50" y="32.565"/><use xlink:href="#51" y="34.736"/><use xlink:href="#52" y="39.078"/><use xlink:href="#53" y="41.249"/><use xlink:href="#54" y="45.591"/><use xlink:href="#55" y="47.762"/><use xlink:href="#56" y="49.933"/></svg><svg x="4214"><use xlink:href="#a"/><use xlink:href="#b" x="-.004" y="49.908"/><use xlink:href="#46"/><use xlink:href="#47" y="2.171"/><use xlink:href="#48" y="4.342"/><use xlink:href="#49" y="8.684"/><use xlink:href="#50" y="10.855"/><use xlink:href="#51" y="13.026"/><use xlink:href="#52" y="17.368"/><use xlink:href="#53" y="19.539"/><use xlink:href="#54" y="23.881"/><use xlink:href="#55" y="26.052"/><use xlink:href="#56" y="28.223"/><use xlink:href="#57" y="32.565"/><use xlink:href="#58" y="36.907"/><use xlink:href="#59" y="41.249"/><use xlink:href="#60" y="45.591"/></svg><svg x="4300"><use xlink:href="#a"/><use xlink:href="#b" x="-.004" y="49.908"/><use xlink:href="#49" y="2.171"/><use xlink:href="#50" y="4.342"/><use xlink:href="#51" y="6.513"/><use xlink:href="#52" y="10.855"/><use xlink:href="#53" y="13.026"/><use xlink:href="#54" y="17.368"/><use xlink:href="#55" y="19.539"/><use xlink:href="#56" y="21.71"/><use xlink:href="#57" y="26.052"/><use xlink:href="#58" y="30.394"/><use xlink:href="#59" y="34.736"/><use xlink:href="#60" y="39.078"/><use xlink:href="#61" y="43.42"/><use xlink:href="#62" y="45.591"/></svg><svg x="4386"><use xlink:href="#a"/><use xlink:href="#b" x="-.004" y="49.908"/><use xlink:href="#51"/><use xlink:href="#52" y="4.342"/><use xlink:href="#53" y="6.513"/><use xlink:href="#54" y="10.855"/><use xlink:href="#55" y="13.026"/><use xlink:href="#56" y="15.197"/><use xlink:href="#57" y="19.539"/><use xlink:href="#58" y="23.881"/><use xlink:href="#59" y="28.223"/><use xlink:href="#60" y="32.565"/><use xlink:href="#61" y="36.907"/><use xlink:href="#62" y="39.078"/><use xlink:href="#63" y="43.42"/><use xlink:href="#64" y="45.591"/></svg><svg x="4472"><use xlink:href="#a"/><use xlink:href="#b" x="-.004" y="49.908"/><use xlink:href="#53"/><use xlink:href="#54" y="4.342"/><use xlink:href="#55" y="6.513"/><use xlink:href="#56" y="8.684"/><use xlink:href="#57" y="13.026"/><use xlink:href="#58" y="17.368"/><use xlink:href="#59" y="21.71"/><use xlink:href="#60" y="26.052"/><use xlink:href="#61" y="30.394"/><use xlink:href="#62" y="32.565"/><use xlink:href="#63" y="36.907"/><use xlink:href="#64" y="39.078"/><use xlink:href="#65" y="43.42"/><use xlink:href="#66" y="45.591"/></svg><svg x="4558"><use xlink:href="#a"/><use xlink:href="#b" x="-.004" y="49.908"/><use xlink:href="#55"/><use xlink:href="#56" y="2.171"/><use xlink:href="#57" y="6.513"/><use xlink:href="#58" y="10.855"/><use xlink:href="#59" y="15.197"/><use xlink:href="#60" y="19.539"/><use xlink:href="#61" y="23.881"/><use xlink:href="#62" y="26.052"/><use xlink:href="#63" y="30.394"/><use xlink:href="#64" y="32.565"/><use xlink:href="#65" y="36.907"/><use xlink:href="#66" y="39.078"/><use xlink:href="#67" y="43.42"/><use xlink:href="#68" y="45.591"/></svg><svg x="4644"><use xlink:href="#a"/><use xlink:href="#b" x="-.004" y="49.908"/><use xlink:href="#59" y="2.171"/><use xlink:href="#60" y="6.513"/><use xlink:href="#61" y="10.855"/><use xlink:href="#62" y="13.026"/><use xlink:href="#63" y="17.368"/><use xlink:href="#64" y="19.539"/><use xlink:href="#65" y="23.881"/><use xlink:href="#66" y="26.052"/><use xlink:href="#67" y="30.394"/><use xlink:href="#68" y="32.565"/><use xlink:href="#69" y="36.907"/><use xlink:href="#70" y="39.078"/><use xlink:href="#71" y="43.42"/><use xlink:href="#72" y="45.591"/></svg><svg x="4730"><use xlink:href="#a"/><use xlink:href="#b" x="-.004" y="49.908"/><use xlink:href="#60" y="2.171"/><use xlink:href="#61" y="6.513"/><use xlink:href="#62" y="8.684"/><use xlink:href="#63" y="13.026"/><use xlink:href="#64" y="15.197"/><use xlink:href="#65" y="19.539"/><use xlink:href="#66" y="21.71"/><use xlink:href="#67" y="26.052"/><use xlink:href="#68" y="28.223"/><use xlink:href="#69" y="32.565"/><use xlink:href="#70" y="34.736"/><use xlink:href="#71" y="39.078"/><use xlink:href="#72" y="41.249"/><use xlink:href="#73" y="45.591"/></svg><svg x="4816"><use xlink:href="#a"/><use xlink:href="#b" x="-.004" y="49.908"/><use xlink:href="#63" y="2.171"/><use xlink:href="#64" y="4.342"/><use xlink:href="#65" y="8.684"/><use xlink:href="#66" y="10.855"/><use xlink:href="#67" y="15.197"/><use xlink:href="#68" y="17.368"/><use xlink:href="#69" y="21.71"/><use xlink:href="#70" y="23.881"/><use xlink:href="#71" y="28.223"/><use xlink:href="#72" y="30.394"/><use xlink:href="#73" y="34.736"/><use xlink:href="#74" y="39.078"/><use xlink:href="#75" y="41.249"/><use xlink:href="#76" y="43.42"/><use xlink:href="#77" y="45.591"/></svg><svg x="4902"><use xlink:href="#a"/><use xlink:href="#b" x="28.996" y="49.908"/><use xlink:href="#63" y="2.171"/><use xlink:href="#64" y="4.342"/><use xlink:href="#65" y="8.684"/><use xlink:href="#66" y="10.855"/><use xlink:href="#67" y="15.197"/><use xlink:href="#68" y="17.368"/><use xlink:href="#69" y="21.71"/><use xlink:href="#70" y="23.881"/><use xlink:href="#71" y="28.223"/><use xlink:href="#72" y="30.394"/><use xlink:href="#73" y="34.736"/><use xlink:href="#74" y="39.078"/><use xlink:href="#75" y="41.249"/><use xlink:href="#76" y="43.42"/><use xlink:href="#77" y="45.591"/><use xlink:href="#1" y="49.933"/></svg><svg x="4988"><use xlink:href="#a"/><use xlink:href="#b" x="-.004" y="49.908"/><use xlink:href="#63"/><use xlink:href="#64" y="2.171"/><use xlink:href="#65" y="6.513"/><use xlink:href="#66" y="8.684"/><use xlink:href="#67" y="13.026"/><use xlink:href="#68" y="15.197"/><use xlink:href="#69" y="19.539"/><use xlink:href="#70" y="21.71"/><use xlink:href="#71" y="26.052"/><use xlink:href="#72" y="28.223"/><use xlink:href="#73" y="32.565"/><use xlink:href="#74" y="36.907"/><use xlink:href="#75" y="39.078"/><use xlink:href="#76" y="41.249"/><use xlink:href="#77" y="43.42"/><text y="49.432" class="c">~/go/src/github.com/cweill</text><text x="27.054" y="49.432" class="d">❯</text><text x="29.058" y="49.432" class="e">exit</text></svg></svg></g></g></svg></svg>