<svg xmlns="http://www.w3.org/2000/svg" xmlns:xlink="http://www.w3.org/1999/xlink" width="850" height="521.04"><rect width="850" height="521.04" rx="0" ry="0" class="a"/><svg height="521.04" viewBox="0 0 85 52.104" width="850" xmlns="http://www.w3.org/2000/svg" xmlns:xlink="http://www.w3.org/1999/xlink"><style>@keyframes j{0%{transform:translateX(0)}.2%{transform:translateX(-85px)}4.5%{transform:translateX(-170px)}14.3%{transform:translateX(-255px)}14.7%{transform:translateX(-340px)}16.2%{transform:translateX(-425px)}17.1%{transform:translateX(-510px)}17.7%{transform:translateX(-595px)}18.4%{transform:translateX(-680px)}19.6%{transform:translateX(-765px)}21.2%{transform:translateX(-850px)}22.1%{transform:translateX(-935px)}23.1%{transform:translateX(-1020px)}23.7%{transform:translateX(-1105px)}24.6%{transform:translateX(-1190px)}25.3%{transform:translateX(-1275px)}26.4%{transform:translateX(-1360px)}27.6%{transform:translateX(-1445px)}28.1%{transform:translateX(-1530px)}29.2%{transform:translateX(-1615px)}30.3%{transform:translateX(-1700px)}30.8%{transform:translateX(-1785px)}31.9%{transform:translateX(-1870px)}32.8%{transform:translateX(-1955px)}33.4%{transform:translateX(-2040px)}34.5%{transform:translateX(-2125px)}35.1%{transform:translateX(-2210px)}36.1%{transform:translateX(-2295px)}37.6%{transform:translateX(-2380px)}38.4%{transform:translateX(-2465px)}39.3%{transform:translateX(-2550px)}39.8%{transform:translateX(-2635px)}41.4%{transform:translateX(-2720px)}44.2%{transform:translateX(-2805px)}45.5%{transform:translateX(-2890px)}46.4%{transform:translateX(-2975px)}51.3%{transform:translateX(-3060px)}52.5%{transform:translateX(-3145px)}53.5%{transform:translateX(-3230px)}61.1%{transform:translateX(-3315px)}61.2%{transform:translateX(-4590px)}61.5%{transform:translateX(-4675px)}to{transform:translateX(-4760px)}}.a{fill:#282d35}.c{fill:#444}.d{fill:#ffd75f;font-weight:700}.e{fill:#b9c0cb}.f{fill:#dbab79}.g{fill:#a8cc8c}</style><g font-size="1.67" font-family="Monaco,Consolas,Menlo,'Bitstream Vera Sans Mono','Powerline Symbols',monospace"><defs><symbol id="1"><text y="1.67" class="c">~/go/src/github.com/cweill</text><text x="27.054" y="1.67" class="d">❯</text></symbol><symbol id="2"><text y="1.67" class="c">~/go/src/github.com/cweill</text><text x="27.054" y="1.67" class="d">❯</text><text x="29.058" y="1.67" class="e">revive</text></symbol><symbol id="3"><text y="1.67" class="c">~/go/src/github.com/cweill</text><text x="27.054" y="1.67" class="d">❯</text><text x="29.058" y="1.67" class="e">revive</text><text x="36.072" y="1.67" class="e">-formatter</text></symbol><symbol id="4"><text y="1.67" class="c">~/go/src/github.com/cweill</text><text x="27.054" y="1.67" class="d">❯</text><text x="29.058" y="1.67" class="e">revive</text><text x="36.072" y="1.67" class="e">-formatter</text><text x="47.094" y="1.67" class="e">friendly</text></symbol><symbol id="5"><text y="1.67" class="c">~/go/src/github.com/cweill</text><text x="27.054" y="1.67" class="d">❯</text><text x="29.058" y="1.67" class="e">revive</text><text x="36.072" y="1.67" class="e">-formatter</text><text x="47.094" y="1.67" class="e">friendly</text><text x="56.112" y="1.67" class="e">gotests/internal/...</text></symbol><symbol id="6"><text x="2.004" y="1.67" class="f">⚠</text><text x="5.01" y="1.67" class="e">error-strings</text><text x="20.04" y="1.67" class="g">error</text><text x="26.052" y="1.67" class="g">strings</text><text x="34.068" y="1.67" class="g">should</text><text x="41.082" y="1.67" class="g">not</text><text x="45.09" y="1.67" class="g">be</text><text x="48.096" y="1.67" class="g">capitalized</text><text x="60.12" y="1.67" class="g">or</text><text x="63.126" y="1.67" class="g">end</text><text x="67.134" y="1.67" class="g">with</text><text x="72.144" y="1.67" class="g">punctuation</text><text x="84.168" y="1.67" class="g">o</text></symbol><symbol id="7"><text y="1.67" class="g">r</text><text x="2.004" y="1.67" class="g">a</text><text x="4.008" y="1.67" class="g">newline</text></symbol><symbol id="8"><text x="2.004" y="1.67" class="e">/Users/mgechev/go/src/github.com/cweill/gotests/internal/input/input.go:15:26</text></symbol><symbol id="9"><text x="2.004" y="1.67" class="e">/Users/mgechev/go/src/github.com/cweill/gotests/internal/input/input.go:26:26</text></symbol><symbol id="10"><text x="2.004" y="1.67" class="f">⚠</text><text x="5.01" y="1.67" class="e">exported</text><text x="15.03" y="1.67" class="g">exported</text><text x="24.048" y="1.67" class="g">function</text><text x="33.066" y="1.67" class="g">Header</text><text x="40.08" y="1.67" class="g">should</text><text x="47.094" y="1.67" class="g">have</text><text x="52.104" y="1.67" class="g">comment</text><text x="60.12" y="1.67" class="g">or</text><text x="63.126" y="1.67" class="g">be</text><text x="66.132" y="1.67" class="g">unexported</text></symbol><symbol id="11"><text x="2.004" y="1.67" class="e">/Users/mgechev/go/src/github.com/cweill/gotests/internal/render/render.go:91:1</text></symbol><symbol id="12"><text x="2.004" y="1.67" class="f">⚠</text><text x="5.01" y="1.67" class="e">exported</text><text x="15.03" y="1.67" class="g">exported</text><text x="24.048" y="1.67" class="g">type</text><text x="29.058" y="1.67" class="g">Options</text><text x="37.074" y="1.67" class="g">should</text><text x="44.088" y="1.67" class="g">have</text><text x="49.098" y="1.67" class="g">comment</text><text x="57.114" y="1.67" class="g">or</text><text x="60.12" y="1.67" class="g">be</text><text x="63.126" y="1.67" class="g">unexported</text></symbol><symbol id="13"><text x="2.004" y="1.67" class="e">/Users/mgechev/go/src/github.com/cweill/gotests/internal/output/output.go:17:6</text></symbol><symbol id="14"><text x="2.004" y="1.67" class="f">⚠</text><text x="5.01" y="1.67" class="e">exported</text><text x="15.03" y="1.67" class="g">comment</text><text x="23.046" y="1.67" class="g">on</text><text x="26.052" y="1.67" class="g">exported</text><text x="35.07" y="1.67" class="g">function</text><text x="44.088" y="1.67" class="g">Files</text><text x="50.1" y="1.67" class="g">should</text><text x="57.114" y="1.67" class="g">be</text><text x="60.12" y="1.67" class="g">of</text><text x="63.126" y="1.67" class="g">the</text><text x="67.134" y="1.67" class="g">form</text><text x="72.144" y="1.67" class="g">&quot;Files</text><text x="79.158" y="1.67" class="g">...&quot;</text></symbol><symbol id="15"><text x="2.004" y="1.67" class="e">/Users/mgechev/go/src/github.com/cweill/gotests/internal/input/input.go:11:1</text></symbol><symbol id="16"><text x="2.004" y="1.67" class="f">⚠</text><text x="5.01" y="1.67" class="e">exported</text><text x="15.03" y="1.67" class="g">exported</text><text x="24.048" y="1.67" class="g">function</text><text x="33.066" y="1.67" class="g">TestFunction</text><text x="46.092" y="1.67" class="g">should</text><text x="53.106" y="1.67" class="g">have</text><text x="58.116" y="1.67" class="g">comment</text><text x="66.132" y="1.67" class="g">or</text><text x="69.138" y="1.67" class="g">be</text><text x="72.144" y="1.67" class="g">unexported</text></symbol><symbol id="17"><text x="2.004" y="1.67" class="e">/Users/mgechev/go/src/github.com/cweill/gotests/internal/render/render.go:99:1</text></symbol><symbol id="18"><text x="2.004" y="1.67" class="f">⚠</text><text x="5.01" y="1.67" class="e">exported</text><text x="15.03" y="1.67" class="g">exported</text><text x="24.048" y="1.67" class="g">function</text><text x="33.066" y="1.67" class="g">Process</text><text x="41.082" y="1.67" class="g">should</text><text x="48.096" y="1.67" class="g">have</text><text x="53.106" y="1.67" class="g">comment</text><text x="61.122" y="1.67" class="g">or</text><text x="64.128" y="1.67" class="g">be</text><text x="67.134" y="1.67" class="g">unexported</text></symbol><symbol id="19"><text x="2.004" y="1.67" class="e">/Users/mgechev/go/src/github.com/cweill/gotests/internal/output/output.go:22:1</text></symbol><symbol id="20"><text x="2.004" y="1.67" class="f">⚠</text><text x="5.01" y="1.67" class="e">exported</text><text x="15.03" y="1.67" class="g">exported</text><text x="24.048" y="1.67" class="g">function</text><text x="33.066" y="1.67" class="g">IsFileExist</text><text x="45.09" y="1.67" class="g">should</text><text x="52.104" y="1.67" class="g">have</text><text x="57.114" y="1.67" class="g">comment</text><text x="65.13" y="1.67" class="g">or</text><text x="68.136" y="1.67" class="g">be</text><text x="71.142" y="1.67" class="g">unexported</text></symbol><symbol id="21"><text x="2.004" y="1.67" class="e">/Users/mgechev/go/src/github.com/cweill/gotests/internal/output/output.go:40:1</text></symbol><symbol id="22"><text x="2.004" y="1.67" class="f">⚠</text><text x="5.01" y="1.67" class="e">exported</text><text x="15.03" y="1.67" class="g">exported</text><text x="24.048" y="1.67" class="g">type</text><text x="29.058" y="1.67" class="g">Expression</text><text x="40.08" y="1.67" class="g">should</text><text x="47.094" y="1.67" class="g">have</text><text x="52.104" y="1.67" class="g">comment</text><text x="60.12" y="1.67" class="g">or</text><text x="63.126" y="1.67" class="g">be</text><text x="66.132" y="1.67" class="g">unexported</text></symbol><symbol id="23"><text x="2.004" y="1.67" class="e">/Users/mgechev/go/src/github.com/cweill/gotests/internal/models/models.go:8:6</text></symbol><symbol id="24"><text x="2.004" y="1.67" class="f">⚠</text><text x="5.01" y="1.67" class="e">exported</text><text x="15.03" y="1.67" class="g">exported</text><text x="24.048" y="1.67" class="g">method</text><text x="31.062" y="1.67" class="g">Field.IsWriter</text><text x="46.092" y="1.67" class="g">should</text><text x="53.106" y="1.67" class="g">have</text><text x="58.116" y="1.67" class="g">comment</text><text x="66.132" y="1.67" class="g">or</text><text x="69.138" y="1.67" class="g">be</text><text x="72.144" y="1.67" class="g">unexported</text></symbol><symbol id="25"><text x="2.004" y="1.67" class="e">/Users/mgechev/go/src/github.com/cweill/gotests/internal/models/models.go:33:1</text></symbol><symbol id="26"><text x="2.004" y="1.67" class="f">⚠</text><text x="5.01" y="1.67" class="e">exported</text><text x="15.03" y="1.67" class="g">exported</text><text x="24.048" y="1.67" class="g">method</text><text x="31.062" y="1.67" class="g">Field.IsStruct</text><text x="46.092" y="1.67" class="g">should</text><text x="53.106" y="1.67" class="g">have</text><text x="58.116" y="1.67" class="g">comment</text><text x="66.132" y="1.67" class="g">or</text><text x="69.138" y="1.67" class="g">be</text><text x="72.144" y="1.67" class="g">unexported</text></symbol><symbol id="27"><text x="2.004" y="1.67" class="e">/Users/mgechev/go/src/github.com/cweill/gotests/internal/models/models.go:37:1</text></symbol><symbol id="28"><text x="2.004" y="1.67" class="f">⚠</text><text x="5.01" y="1.67" class="e">exported</text><text x="15.03" y="1.67" class="g">exported</text><text x="24.048" y="1.67" class="g">method</text><text x="31.062" y="1.67" class="g">Field.IsBasicType</text><text x="49.098" y="1.67" class="g">should</text><text x="56.112" y="1.67" class="g">have</text><text x="61.122" y="1.67" class="g">comment</text><text x="69.138" y="1.67" class="g">or</text><text x="72.144" y="1.67" class="g">be</text><text x="75.15" y="1.67" class="g">unexported</text></symbol><symbol id="29"><text x="2.004" y="1.67" class="e">/Users/mgechev/go/src/github.com/cweill/gotests/internal/models/models.go:41:1</text></symbol><symbol id="30"><text x="2.004" y="1.67" class="f">⚠</text><text x="5.01" y="1.67" class="e">package-comments</text><text x="23.046" y="1.67" class="g">package</text><text x="31.062" y="1.67" class="g">comment</text><text x="39.078" y="1.67" class="g">should</text><text x="46.092" y="1.67" class="g">be</text><text x="49.098" y="1.67" class="g">of</text><text x="52.104" y="1.67" class="g">the</text><text x="56.112" y="1.67" class="g">form</text><text x="61.122" y="1.67" class="g">&quot;Package</text><text x="70.14" y="1.67" class="g">goparser</text><text x="79.158" y="1.67" class="g">...&quot;</text></symbol><symbol id="31"><text x="2.004" y="1.67" class="e">/Users/mgechev/go/src/github.com/cweill/gotests/internal/goparser/goparser.go:1:1</text></symbol><symbol id="32"><text x="2.004" y="1.67" class="f">⚠</text><text x="5.01" y="1.67" class="e">exported</text><text x="15.03" y="1.67" class="g">exported</text><text x="24.048" y="1.67" class="g">method</text><text x="31.062" y="1.67" class="g">Field.IsNamed</text><text x="45.09" y="1.67" class="g">should</text><text x="52.104" y="1.67" class="g">have</text><text x="57.114" y="1.67" class="g">comment</text><text x="65.13" y="1.67" class="g">or</text><text x="68.136" y="1.67" class="g">be</text><text x="71.142" y="1.67" class="g">unexported</text></symbol><symbol id="33"><text x="2.004" y="1.67" class="e">/Users/mgechev/go/src/github.com/cweill/gotests/internal/models/models.go:56:1</text></symbol><symbol id="34"><text x="2.004" y="1.67" class="f">⚠</text><text x="5.01" y="1.67" class="e">exported</text><text x="15.03" y="1.67" class="g">exported</text><text x="24.048" y="1.67" class="g">method</text><text x="31.062" y="1.67" class="g">Field.ShortName</text><text x="47.094" y="1.67" class="g">should</text><text x="54.108" y="1.67" class="g">have</text><text x="59.118" y="1.67" class="g">comment</text><text x="67.134" y="1.67" class="g">or</text><text x="70.14" y="1.67" class="g">be</text><text x="73.146" y="1.67" class="g">unexported</text></symbol><symbol id="35"><text x="2.004" y="1.67" class="e">/Users/mgechev/go/src/github.com/cweill/gotests/internal/models/models.go:60:1</text></symbol><symbol id="36"><text x="2.004" y="1.67" class="f">⚠</text><text x="5.01" y="1.67" class="e">exported</text><text x="15.03" y="1.67" class="g">exported</text><text x="24.048" y="1.67" class="g">type</text><text x="29.058" y="1.67" class="g">Receiver</text><text x="38.076" y="1.67" class="g">should</text><text x="45.09" y="1.67" class="g">have</text><text x="50.1" y="1.67" class="g">comment</text><text x="58.116" y="1.67" class="g">or</text><text x="61.122" y="1.67" class="g">be</text><text x="64.128" y="1.67" class="g">unexported</text></symbol><symbol id="37"><text x="2.004" y="1.67" class="e">/Users/mgechev/go/src/github.com/cweill/gotests/internal/models/models.go:64:6</text></symbol><symbol id="38"><text x="2.004" y="1.67" class="f">⚠</text><text x="5.01" y="1.67" class="e">exported</text><text x="15.03" y="1.67" class="g">exported</text><text x="24.048" y="1.67" class="g">type</text><text x="29.058" y="1.67" class="g">Function</text><text x="38.076" y="1.67" class="g">should</text><text x="45.09" y="1.67" class="g">have</text><text x="50.1" y="1.67" class="g">comment</text><text x="58.116" y="1.67" class="g">or</text><text x="61.122" y="1.67" class="g">be</text><text x="64.128" y="1.67" class="g">unexported</text></symbol><symbol id="39"><text x="2.004" y="1.67" class="e">/Users/mgechev/go/src/github.com/cweill/gotests/internal/models/models.go:69:6</text></symbol><symbol id="40"><text x="2.004" y="1.67" class="f">⚠</text><text x="5.01" y="1.67" class="e">exported</text><text x="15.03" y="1.67" class="g">exported</text><text x="24.048" y="1.67" class="g">method</text><text x="31.062" y="1.67" class="g">Function.TestParameters</text><text x="55.11" y="1.67" class="g">should</text><text x="62.124" y="1.67" class="g">have</text><text x="67.134" y="1.67" class="g">comment</text><text x="75.15" y="1.67" class="g">or</text><text x="78.156" y="1.67" class="g">be</text><text x="81.162" y="1.67" class="g">unex</text></symbol><symbol id="41"><text y="1.67" class="g">ported</text></symbol><symbol id="42"><text x="2.004" y="1.67" class="e">/Users/mgechev/go/src/github.com/cweill/gotests/internal/models/models.go:78:1</text></symbol><symbol id="43"><text x="2.004" y="1.67" class="f">⚠</text><text x="5.01" y="1.67" class="e">exported</text><text x="15.03" y="1.67" class="g">exported</text><text x="24.048" y="1.67" class="g">method</text><text x="31.062" y="1.67" class="g">Function.TestResults</text><text x="52.104" y="1.67" class="g">should</text><text x="59.118" y="1.67" class="g">have</text><text x="64.128" y="1.67" class="g">comment</text><text x="72.144" y="1.67" class="g">or</text><text x="75.15" y="1.67" class="g">be</text><text x="78.156" y="1.67" class="g">unexpor</text></symbol><symbol id="44"><text y="1.67" class="g">ted</text></symbol><symbol id="45"><text x="2.004" y="1.67" class="e">/Users/mgechev/go/src/github.com/cweill/gotests/internal/models/models.go:89:1</text></symbol><symbol id="46"><text x="2.004" y="1.67" class="f">⚠</text><text x="5.01" y="1.67" class="e">exported</text><text x="15.03" y="1.67" class="g">exported</text><text x="24.048" y="1.67" class="g">method</text><text x="31.062" y="1.67" class="g">Function.ReturnsMultiple</text><text x="56.112" y="1.67" class="g">should</text><text x="63.126" y="1.67" class="g">have</text><text x="68.136" y="1.67" class="g">comment</text><text x="76.152" y="1.67" class="g">or</text><text x="79.158" y="1.67" class="g">be</text><text x="82.164" y="1.67" class="g">une</text></symbol><symbol id="47"><text y="1.67" class="g">xported</text></symbol><symbol id="48"><text x="2.004" y="1.67" class="e">/Users/mgechev/go/src/github.com/cweill/gotests/internal/models/models.go:109:1</text></symbol><symbol id="49"><text x="2.004" y="1.67" class="f">⚠</text><text x="5.01" y="1.67" class="e">exported</text><text x="15.03" y="1.67" class="g">exported</text><text x="24.048" y="1.67" class="g">method</text><text x="31.062" y="1.67" class="g">Function.OnlyReturnsOneValue</text><text x="60.12" y="1.67" class="g">should</text><text x="67.134" y="1.67" class="g">have</text><text x="72.144" y="1.67" class="g">comment</text><text x="80.16" y="1.67" class="g">or</text><text x="83.166" y="1.67" class="g">be</text></symbol><symbol id="50"><text x="1.002" y="1.67" class="g">unexported</text></symbol><symbol id="51"><text x="2.004" y="1.67" class="e">/Users/mgechev/go/src/github.com/cweill/gotests/internal/models/models.go:113:1</text></symbol><symbol id="52"><text x="2.004" y="1.67" class="f">⚠</text><text x="5.01" y="1.67" class="e">exported</text><text x="15.03" y="1.67" class="g">exported</text><text x="24.048" y="1.67" class="g">method</text><text x="31.062" y="1.67" class="g">Function.OnlyReturnsError</text><text x="57.114" y="1.67" class="g">should</text><text x="64.128" y="1.67" class="g">have</text><text x="69.138" y="1.67" class="g">comment</text><text x="77.154" y="1.67" class="g">or</text><text x="80.16" y="1.67" class="g">be</text><text x="83.166" y="1.67" class="g">un</text></symbol><symbol id="53"><text y="1.67" class="g">exported</text></symbol><symbol id="54"><text x="2.004" y="1.67" class="e">/Users/mgechev/go/src/github.com/cweill/gotests/internal/models/models.go:117:1</text></symbol><symbol id="55"><text x="2.004" y="1.67" class="f">⚠</text><text x="5.01" y="1.67" class="e">exported</text><text x="15.03" y="1.67" class="g">exported</text><text x="24.048" y="1.67" class="g">method</text><text x="31.062" y="1.67" class="g">Function.FullName</text><text x="49.098" y="1.67" class="g">should</text><text x="56.112" y="1.67" class="g">have</text><text x="61.122" y="1.67" class="g">comment</text><text x="69.138" y="1.67" class="g">or</text><text x="72.144" y="1.67" class="g">be</text><text x="75.15" y="1.67" class="g">unexported</text></symbol><symbol id="56"><text x="2.004" y="1.67" class="e">/Users/mgechev/go/src/github.com/cweill/gotests/internal/models/models.go:121:1</text></symbol><symbol id="57"><text x="2.004" y="1.67" class="f">⚠</text><text x="5.01" y="1.67" class="e">exported</text><text x="15.03" y="1.67" class="g">exported</text><text x="24.048" y="1.67" class="g">method</text><text x="31.062" y="1.67" class="g">Function.TestName</text><text x="49.098" y="1.67" class="g">should</text><text x="56.112" y="1.67" class="g">have</text><text x="61.122" y="1.67" class="g">comment</text><text x="69.138" y="1.67" class="g">or</text><text x="72.144" y="1.67" class="g">be</text><text x="75.15" y="1.67" class="g">unexported</text></symbol><symbol id="58"><text x="2.004" y="1.67" class="e">/Users/mgechev/go/src/github.com/cweill/gotests/internal/models/models.go:129:1</text></symbol><symbol id="59"><text x="2.004" y="1.67" class="f">⚠</text><text x="5.01" y="1.67" class="e">exported</text><text x="15.03" y="1.67" class="g">exported</text><text x="24.048" y="1.67" class="g">method</text><text x="31.062" y="1.67" class="g">Function.IsNaked</text><text x="48.096" y="1.67" class="g">should</text><text x="55.11" y="1.67" class="g">have</text><text x="60.12" y="1.67" class="g">comment</text><text x="68.136" y="1.67" class="g">or</text><text x="71.142" y="1.67" class="g">be</text><text x="74.148" y="1.67" class="g">unexported</text></symbol><symbol id="60"><text x="2.004" y="1.67" class="e">/Users/mgechev/go/src/github.com/cweill/gotests/internal/models/models.go:146:1</text></symbol><symbol id="61"><text x="2.004" y="1.67" class="f">⚠</text><text x="5.01" y="1.67" class="e">exported</text><text x="15.03" y="1.67" class="g">exported</text><text x="24.048" y="1.67" class="g">type</text><text x="29.058" y="1.67" class="g">Import</text><text x="36.072" y="1.67" class="g">should</text><text x="43.086" y="1.67" class="g">have</text><text x="48.096" y="1.67" class="g">comment</text><text x="56.112" y="1.67" class="g">or</text><text x="59.118" y="1.67" class="g">be</text><text x="62.124" y="1.67" class="g">unexported</text></symbol><symbol id="62"><text x="2.004" y="1.67" class="e">/Users/mgechev/go/src/github.com/cweill/gotests/internal/models/models.go:150:6</text></symbol><symbol id="63"><text x="2.004" y="1.67" class="f">⚠</text><text x="5.01" y="1.67" class="e">exported</text><text x="15.03" y="1.67" class="g">exported</text><text x="24.048" y="1.67" class="g">type</text><text x="29.058" y="1.67" class="g">Header</text><text x="36.072" y="1.67" class="g">should</text><text x="43.086" y="1.67" class="g">have</text><text x="48.096" y="1.67" class="g">comment</text><text x="56.112" y="1.67" class="g">or</text><text x="59.118" y="1.67" class="g">be</text><text x="62.124" y="1.67" class="g">unexported</text></symbol><symbol id="64"><text x="2.004" y="1.67" class="e">/Users/mgechev/go/src/github.com/cweill/gotests/internal/models/models.go:154:6</text></symbol><symbol id="65"><text x="2.004" y="1.67" class="f">⚠</text><text x="5.01" y="1.67" class="e">exported</text><text x="15.03" y="1.67" class="g">exported</text><text x="24.048" y="1.67" class="g">type</text><text x="29.058" y="1.67" class="g">Path</text><text x="34.068" y="1.67" class="g">should</text><text x="41.082" y="1.67" class="g">have</text><text x="46.092" y="1.67" class="g">comment</text><text x="54.108" y="1.67" class="g">or</text><text x="57.114" y="1.67" class="g">be</text><text x="60.12" y="1.67" class="g">unexported</text></symbol><symbol id="66"><text x="2.004" y="1.67" class="e">/Users/mgechev/go/src/github.com/cweill/gotests/internal/models/models.go:161:6</text></symbol><symbol id="67"><text x="2.004" y="1.67" class="f">⚠</text><text x="5.01" y="1.67" class="e">exported</text><text x="15.03" y="1.67" class="g">exported</text><text x="24.048" y="1.67" class="g">method</text><text x="31.062" y="1.67" class="g">Path.TestPath</text><text x="45.09" y="1.67" class="g">should</text><text x="52.104" y="1.67" class="g">have</text><text x="57.114" y="1.67" class="g">comment</text><text x="65.13" y="1.67" class="g">or</text><text x="68.136" y="1.67" class="g">be</text><text x="71.142" y="1.67" class="g">unexported</text></symbol><symbol id="68"><text x="2.004" y="1.67" class="e">/Users/mgechev/go/src/github.com/cweill/gotests/internal/models/models.go:163:1</text></symbol><symbol id="69"><text x="2.004" y="1.67" class="f">⚠</text><text x="5.01" y="1.67" class="e">exported</text><text x="15.03" y="1.67" class="g">exported</text><text x="24.048" y="1.67" class="g">method</text><text x="31.062" y="1.67" class="g">Path.IsTestPath</text><text x="47.094" y="1.67" class="g">should</text><text x="54.108" y="1.67" class="g">have</text><text x="59.118" y="1.67" class="g">comment</text><text x="67.134" y="1.67" class="g">or</text><text x="70.14" y="1.67" class="g">be</text><text x="73.146" y="1.67" class="g">unexported</text></symbol><symbol id="70"><text x="2.004" y="1.67" class="e">/Users/mgechev/go/src/github.com/cweill/gotests/internal/models/models.go:170:1</text></symbol><symbol id="71"><text y="1.67" class="f">⚠</text><text x="2.004" y="1.67" class="f">31</text><text x="5.01" y="1.67" class="f">problems</text><text x="14.028" y="1.67" class="f">(0</text><text x="17.034" y="1.67" class="f">errors,</text><text x="25.05" y="1.67" class="f">31</text><text x="28.056" y="1.67" class="f">warnings)</text></symbol><symbol id="72"><text y="1.67" class="f">Warnings:</text></symbol><symbol id="73"><text x="2.004" y="1.67" class="g">28</text><text x="6.012" y="1.67" class="e">exported</text></symbol><symbol id="74"><text x="2.004" y="1.67" class="g">2</text><text x="6.012" y="1.67" class="e">error-strings</text></symbol><symbol id="75"><text x="2.004" y="1.67" class="g">1</text><text x="6.012" y="1.67" class="e">package-comments</text></symbol><symbol id="a"><path fill="transparent" d="M0 0h85v24H0z"/></symbol><symbol id="b"><path fill="#6f7683" d="M0 0h1.102v2.171H0z"/></symbol></defs><path class="a" d="M0 0h85v52.104H0z"/><g style="animation-duration:14.261762s;animation-iteration-count:infinite;animation-name:j;animation-timing-function:steps(1,end)"><svg width="4845"><svg><use xlink:href="#a"/><use xlink:href="#b" x="-.004"/></svg><svg x="85"><use xlink:href="#a"/><use xlink:href="#b" x="-.004"/></svg><svg x="170"><use xlink:href="#a"/><use xlink:href="#b" x="28.996"/><use xlink:href="#1"/></svg><svg x="255"><use xlink:href="#a"/><use xlink:href="#b" x="29.996"/><text y="1.67" class="c">~/go/src/github.com/cweill</text><text x="27.054" y="1.67" class="d">❯</text><text x="29.058" y="1.67" class="e">r</text></svg><svg x="340"><use xlink:href="#a"/><use xlink:href="#b" x="30.996"/><text y="1.67" class="c">~/go/src/github.com/cweill</text><text x="27.054" y="1.67" class="d">❯</text><text x="29.058" y="1.67" class="e">re</text></svg><svg x="425"><use xlink:href="#a"/><use xlink:href="#b" x="31.996"/><text y="1.67" class="c">~/go/src/github.com/cweill</text><text x="27.054" y="1.67" class="d">❯</text><text x="29.058" y="1.67" class="e">rev</text></svg><svg x="510"><use xlink:href="#a"/><use xlink:href="#b" x="32.996"/><text y="1.67" class="c">~/go/src/github.com/cweill</text><text x="27.054" y="1.67" class="d">❯</text><text x="29.058" y="1.67" class="e">revi</text></svg><svg x="595"><use xlink:href="#a"/><use xlink:href="#b" x="33.996"/><text y="1.67" class="c">~/go/src/github.com/cweill</text><text x="27.054" y="1.67" class="d">❯</text><text x="29.058" y="1.67" class="e">reviv</text></svg><svg x="680"><use xlink:href="#a"/><use xlink:href="#b" x="34.996"/><use xlink:href="#2"/></svg><svg x="765"><use xlink:href="#a"/><use xlink:href="#b" x="35.996"/><use xlink:href="#2"/></svg><svg x="850"><use xlink:href="#a"/><use xlink:href="#b" x="36.996"/><text y="1.67" class="c">~/go/src/github.com/cweill</text><text x="27.054" y="1.67" class="d">❯</text><text x="29.058" y="1.67" class="e">revive</text><text x="36.072" y="1.67" class="e">-</text></svg><svg x="935"><use xlink:href="#a"/><use xlink:href="#b" x="37.996"/><text y="1.67" class="c">~/go/src/github.com/cweill</text><text x="27.054" y="1.67" class="d">❯</text><text x="29.058" y="1.67" class="e">revive</text><text x="36.072" y="1.67" class="e">-f</text></svg><svg x="1020"><use xlink:href="#a"/><use xlink:href="#b" x="38.996"/><text y="1.67" class="c">~/go/src/github.com/cweill</text><text x="27.054" y="1.67" class="d">❯</text><text x="29.058" y="1.67" class="e">revive</text><text x="36.072" y="1.67" class="e">-fo</text></svg><svg x="1105"><use xlink:href="#a"/><use xlink:href="#b" x="39.996"/><text y="1.67" class="c">~/go/src/github.com/cweill</text><text x="27.054" y="1.67" class="d">❯</text><text x="29.058" y="1.67" class="e">revive</text><text x="36.072" y="1.67" class="e">-for</text></svg><svg x="1190"><use xlink:href="#a"/><use xlink:href="#b" x="40.996"/><text y="1.67" class="c">~/go/src/github.com/cweill</text><text x="27.054" y="1.67" class="d">❯</text><text x="29.058" y="1.67" class="e">revive</text><text x="36.072" y="1.67" class="e">-form</text></svg><svg x="1275"><use xlink:href="#a"/><use xlink:href="#b" x="41.996"/><text y="1.67" class="c">~/go/src/github.com/cweill</text><text x="27.054" y="1.67" class="d">❯</text><text x="29.058" y="1.67" class="e">revive</text><text x="36.072" y="1.67" class="e">-forma</text></svg><svg x="1360"><use xlink:href="#a"/><use xlink:href="#b" x="42.996"/><text y="1.67" class="c">~/go/src/github.com/cweill</text><text x="27.054" y="1.67" class="d">❯</text><text x="29.058" y="1.67" class="e">revive</text><text x="36.072" y="1.67" class="e">-format</text></svg><svg x="1445"><use xlink:href="#a"/><use xlink:href="#b" x="43.996"/><text y="1.67" class="c">~/go/src/github.com/cweill</text><text x="27.054" y="1.67" class="d">❯</text><text x="29.058" y="1.67" class="e">revive</text><text x="36.072" y="1.67" class="e">-formatt</text></svg><svg x="1530"><use xlink:href="#a"/><use xlink:href="#b" x="44.996"/><text y="1.67" class="c">~/go/src/github.com/cweill</text><text x="27.054" y="1.67" class="d">❯</text><text x="29.058" y="1.67" class="e">revive</text><text x="36.072" y="1.67" class="e">-formatte</text></svg><svg x="1615"><use xlink:href="#a"/><use xlink:href="#b" x="45.996"/><use xlink:href="#3"/></svg><svg x="1700"><use xlink:href="#a"/><use xlink:href="#b" x="46.996"/><use xlink:href="#3"/></svg><svg x="1785"><use xlink:href="#a"/><use xlink:href="#b" x="47.996"/><text y="1.67" class="c">~/go/src/github.com/cweill</text><text x="27.054" y="1.67" class="d">❯</text><text x="29.058" y="1.67" class="e">revive</text><text x="36.072" y="1.67" class="e">-formatter</text><text x="47.094" y="1.67" class="e">f</text></svg><svg x="1870"><use xlink:href="#a"/><use xlink:href="#b" x="48.996"/><text y="1.67" class="c">~/go/src/github.com/cweill</text><text x="27.054" y="1.67" class="d">❯</text><text x="29.058" y="1.67" class="e">revive</text><text x="36.072" y="1.67" class="e">-formatter</text><text x="47.094" y="1.67" class="e">fr</text></svg><svg x="1955"><use xlink:href="#a"/><use xlink:href="#b" x="49.996"/><text y="1.67" class="c">~/go/src/github.com/cweill</text><text x="27.054" y="1.67" class="d">❯</text><text x="29.058" y="1.67" class="e">revive</text><text x="36.072" y="1.67" class="e">-formatter</text><text x="47.094" y="1.67" class="e">fri</text></svg><svg x="2040"><use xlink:href="#a"/><use xlink:href="#b" x="50.996"/><text y="1.67" class="c">~/go/src/github.com/cweill</text><text x="27.054" y="1.67" class="d">❯</text><text x="29.058" y="1.67" class="e">revive</text><text x="36.072" y="1.67" class="e">-formatter</text><text x="47.094" y="1.67" class="e">frie</text></svg><svg x="2125"><use xlink:href="#a"/><use xlink:href="#b" x="51.996"/><text y="1.67" class="c">~/go/src/github.com/cweill</text><text x="27.054" y="1.67" class="d">❯</text><text x="29.058" y="1.67" class="e">revive</text><text x="36.072" y="1.67" class="e">-formatter</text><text x="47.094" y="1.67" class="e">frien</text></svg><svg x="2210"><use xlink:href="#a"/><use xlink:href="#b" x="52.996"/><text y="1.67" class="c">~/go/src/github.com/cweill</text><text x="27.054" y="1.67" class="d">❯</text><text x="29.058" y="1.67" class="e">revive</text><text x="36.072" y="1.67" class="e">-formatter</text><text x="47.094" y="1.67" class="e">friend</text></svg><svg x="2295"><use xlink:href="#a"/><use xlink:href="#b" x="53.996"/><text y="1.67" class="c">~/go/src/github.com/cweill</text><text x="27.054" y="1.67" class="d">❯</text><text x="29.058" y="1.67" class="e">revive</text><text x="36.072" y="1.67" class="e">-formatter</text><text x="47.094" y="1.67" class="e">friendl</text></svg><svg x="2380"><use xlink:href="#a"/><use xlink:href="#b" x="54.996"/><use xlink:href="#4"/></svg><svg x="2465"><use xlink:href="#a"/><use xlink:href="#b" x="55.996"/><use xlink:href="#4"/></svg><svg x="2550"><use xlink:href="#a"/><use xlink:href="#b" x="56.996"/><text y="1.67" class="c">~/go/src/github.com/cweill</text><text x="27.054" y="1.67" class="d">❯</text><text x="29.058" y="1.67" class="e">revive</text><text x="36.072" y="1.67" class="e">-formatter</text><text x="47.094" y="1.67" class="e">friendly</text><text x="56.112" y="1.67" class="e">g</text></svg><svg x="2635"><use xlink:href="#a"/><use xlink:href="#b" x="57.996"/><text y="1.67" class="c">~/go/src/github.com/cweill</text><text x="27.054" y="1.67" class="d">❯</text><text x="29.058" y="1.67" class="e">revive</text><text x="36.072" y="1.67" class="e">-formatter</text><text x="47.094" y="1.67" class="e">friendly</text><text x="56.112" y="1.67" class="e">go</text></svg><svg x="2720"><use xlink:href="#a"/><use xlink:href="#b" x="63.996"/><text y="1.67" class="c">~/go/src/github.com/cweill</text><text x="27.054" y="1.67" class="d">❯</text><text x="29.058" y="1.67" class="e">revive</text><text x="36.072" y="1.67" class="e">-formatter</text><text x="47.094" y="1.67" class="e">friendly</text><text x="56.112" y="1.67" class="e">gotests/</text></svg><svg x="2805"><use xlink:href="#a"/><use xlink:href="#b" x="64.996"/><text y="1.67" class="c">~/go/src/github.com/cweill</text><text x="27.054" y="1.67" class="d">❯</text><text x="29.058" y="1.67" class="e">revive</text><text x="36.072" y="1.67" class="e">-formatter</text><text x="47.094" y="1.67" class="e">friendly</text><text x="56.112" y="1.67" class="e">gotests/i</text></svg><svg x="2890"><use xlink:href="#a"/><use xlink:href="#b" x="65.996"/><text y="1.67" class="c">~/go/src/github.com/cweill</text><text x="27.054" y="1.67" class="d">❯</text><text x="29.058" y="1.67" class="e">revive</text><text x="36.072" y="1.67" class="e">-formatter</text><text x="47.094" y="1.67" class="e">friendly</text><text x="56.112" y="1.67" class="e">gotests/in</text></svg><svg x="2975"><use xlink:href="#a"/><use xlink:href="#b" x="72.996"/><text y="1.67" class="c">~/go/src/github.com/cweill</text><text x="27.054" y="1.67" class="d">❯</text><text x="29.058" y="1.67" class="e">revive</text><text x="36.072" y="1.67" class="e">-formatter</text><text x="47.094" y="1.67" class="e">friendly</text><text x="56.112" y="1.67" class="e">gotests/internal/</text></svg><svg x="3060"><use xlink:href="#a"/><use xlink:href="#b" x="73.996"/><text y="1.67" class="c">~/go/src/github.com/cweill</text><text x="27.054" y="1.67" class="d">❯</text><text x="29.058" y="1.67" class="e">revive</text><text x="36.072" y="1.67" class="e">-formatter</text><text x="47.094" y="1.67" class="e">friendly</text><text x="56.112" y="1.67" class="e">gotests/internal/.</text></svg><svg x="3145"><use xlink:href="#a"/><use xlink:href="#b" x="74.996"/><text y="1.67" class="c">~/go/src/github.com/cweill</text><text x="27.054" y="1.67" class="d">❯</text><text x="29.058" y="1.67" class="e">revive</text><text x="36.072" y="1.67" class="e">-formatter</text><text x="47.094" y="1.67" class="e">friendly</text><text x="56.112" y="1.67" class="e">gotests/internal/..</text></svg><svg x="3230"><use xlink:href="#a"/><use xlink:href="#b" x="75.996"/><use xlink:href="#5"/></svg><svg x="3315"><use xlink:href="#a"/><use xlink:href="#b" x="-.004" y="2.146"/><use xlink:href="#5"/></svg><svg x="3400"><use xlink:href="#a"/><use xlink:href="#b" x="-.004" y="10.83"/><use xlink:href="#5"/><use xlink:href="#6" y="2.171"/><use xlink:href="#7" y="4.342"/><use xlink:href="#8" y="6.513"/></svg><svg x="3485"><use xlink:href="#a"/><use xlink:href="#b" x="-.004" y="39.053"/><use xlink:href="#5"/><use xlink:href="#6" y="2.171"/><use xlink:href="#7" y="4.342"/><use xlink:href="#8" y="6.513"/><use xlink:href="#6" y="10.855"/><use xlink:href="#7" y="13.026"/><use xlink:href="#9" y="15.197"/><use xlink:href="#10" y="19.539"/><use xlink:href="#11" y="21.71"/><use xlink:href="#12" y="26.052"/><use xlink:href="#13" y="28.223"/><use xlink:href="#14" y="32.565"/><use xlink:href="#15" y="34.736"/></svg><svg x="3570"><use xlink:href="#a"/><use xlink:href="#b" x="-.004" y="49.908"/><use xlink:href="#7"/><use xlink:href="#8" y="2.171"/><use xlink:href="#6" y="6.513"/><use xlink:href="#7" y="8.684"/><use xlink:href="#9" y="10.855"/><use xlink:href="#10" y="15.197"/><use xlink:href="#11" y="17.368"/><use xlink:href="#12" y="21.71"/><use xlink:href="#13" y="23.881"/><use xlink:href="#14" y="28.223"/><use xlink:href="#15" y="30.394"/><use xlink:href="#16" y="34.736"/><use xlink:href="#17" y="36.907"/><use xlink:href="#18" y="41.249"/><use xlink:href="#19" y="43.42"/><use xlink:href="#20" y="47.762"/></svg><svg x="3655"><use xlink:href="#a"/><use xlink:href="#b" x="-.004" y="49.908"/><use xlink:href="#9"/><use xlink:href="#10" y="4.342"/><use xlink:href="#11" y="6.513"/><use xlink:href="#12" y="10.855"/><use xlink:href="#13" y="13.026"/><use xlink:href="#14" y="17.368"/><use xlink:href="#15" y="19.539"/><use xlink:href="#16" y="23.881"/><use xlink:href="#17" y="26.052"/><use xlink:href="#18" y="30.394"/><use xlink:href="#19" y="32.565"/><use xlink:href="#20" y="36.907"/><use xlink:href="#21" y="39.078"/><use xlink:href="#22" y="43.42"/><use xlink:href="#23" y="45.591"/></svg><svg x="3740"><use xlink:href="#a"/><use xlink:href="#b" x="-.004" y="49.908"/><use xlink:href="#15"/><use xlink:href="#16" y="4.342"/><use xlink:href="#17" y="6.513"/><use xlink:href="#18" y="10.855"/><use xlink:href="#19" y="13.026"/><use xlink:href="#20" y="17.368"/><use xlink:href="#21" y="19.539"/><use xlink:href="#22" y="23.881"/><use xlink:href="#23" y="26.052"/><text x="2.004" y="32.064" class="f">⚠</text><text x="5.01" y="32.064" class="e">exported</text><text x="15.03" y="32.064" class="g">exported</text><text x="24.048" y="32.064" class="g">type</text><text x="29.058" y="32.064" class="g">Field</text><text x="35.07" y="32.064" class="g">should</text><text x="42.084" y="32.064" class="g">have</text><text x="47.094" y="32.064" class="g">comment</text><text x="55.11" y="32.064" class="g">or</text><text x="58.116" y="32.064" class="g">be</text><text x="61.122" y="32.064" class="g">unexported</text><text x="2.004" y="34.235" class="e">/Users/mgechev/go/src/github.com/cweill/gotests/internal/models/models.go:27:6</text><use xlink:href="#24" y="36.907"/><use xlink:href="#25" y="39.078"/><use xlink:href="#26" y="43.42"/><use xlink:href="#27" y="45.591"/></svg><svg x="3825"><use xlink:href="#a"/><use xlink:href="#b" x="-.004" y="49.908"/><use xlink:href="#24" y="2.171"/><use xlink:href="#25" y="4.342"/><use xlink:href="#26" y="8.684"/><use xlink:href="#27" y="10.855"/><use xlink:href="#28" y="15.197"/><use xlink:href="#29" y="19.539"/><use xlink:href="#30" y="23.881"/><use xlink:href="#31" y="26.052"/><use xlink:href="#32" y="30.394"/><use xlink:href="#33" y="32.565"/><use xlink:href="#34" y="36.907"/><use xlink:href="#35" y="39.078"/><use xlink:href="#36" y="43.42"/><use xlink:href="#37" y="45.591"/></svg><svg x="3910"><use xlink:href="#a"/><use xlink:href="#b" x="-.004" y="49.908"/><use xlink:href="#27"/><use xlink:href="#28" y="4.342"/><use xlink:href="#29" y="8.684"/><use xlink:href="#30" y="13.026"/><use xlink:href="#31" y="15.197"/><use xlink:href="#32" y="19.539"/><use xlink:href="#33" y="21.71"/><use xlink:href="#34" y="26.052"/><use xlink:href="#35" y="28.223"/><use xlink:href="#36" y="32.565"/><use xlink:href="#37" y="34.736"/><use xlink:href="#38" y="39.078"/><use xlink:href="#39" y="41.249"/><use xlink:href="#40" y="45.591"/><use xlink:href="#41" y="47.762"/></svg><svg x="3995"><use xlink:href="#a"/><use xlink:href="#b" x="-.004" y="49.908"/><use xlink:href="#33"/><use xlink:href="#34" y="4.342"/><use xlink:href="#35" y="6.513"/><use xlink:href="#36" y="10.855"/><use xlink:href="#37" y="13.026"/><use xlink:href="#38" y="17.368"/><use xlink:href="#39" y="19.539"/><use xlink:href="#40" y="23.881"/><use xlink:href="#41" y="26.052"/><use xlink:href="#42" y="28.223"/><use xlink:href="#43" y="32.565"/><use xlink:href="#44" y="34.736"/><use xlink:href="#45" y="36.907"/><use xlink:href="#46" y="41.249"/><use xlink:href="#47" y="43.42"/><use xlink:href="#48" y="45.591"/></svg><svg x="4080"><use xlink:href="#a"/><use xlink:href="#b" x="-.004" y="49.908"/><use xlink:href="#38"/><use xlink:href="#39" y="2.171"/><use xlink:href="#40" y="6.513"/><use xlink:href="#41" y="8.684"/><use xlink:href="#42" y="10.855"/><use xlink:href="#43" y="15.197"/><use xlink:href="#44" y="17.368"/><use xlink:href="#45" y="19.539"/><use xlink:href="#46" y="23.881"/><use xlink:href="#47" y="26.052"/><use xlink:href="#48" y="28.223"/><use xlink:href="#49" y="32.565"/><use xlink:href="#50" y="34.736"/><use xlink:href="#51" y="36.907"/><use xlink:href="#52" y="41.249"/><use xlink:href="#53" y="43.42"/><use xlink:href="#54" y="45.591"/></svg><svg x="4165"><use xlink:href="#a"/><use xlink:href="#b" x="-.004" y="49.908"/><use xlink:href="#44"/><use xlink:href="#45" y="2.171"/><use xlink:href="#46" y="6.513"/><use xlink:href="#47" y="8.684"/><use xlink:href="#48" y="10.855"/><use xlink:href="#49" y="15.197"/><use xlink:href="#50" y="17.368"/><use xlink:href="#51" y="19.539"/><use xlink:href="#52" y="23.881"/><use xlink:href="#53" y="26.052"/><use xlink:href="#54" y="28.223"/><use xlink:href="#55" y="32.565"/><use xlink:href="#56" y="36.907"/><use xlink:href="#57" y="41.249"/><use xlink:href="#58" y="45.591"/></svg><svg x="4250"><use xlink:href="#a"/><use xlink:href="#b" x="-.004" y="49.908"/><use xlink:href="#52" y="2.171"/><use xlink:href="#53" y="4.342"/><use xlink:href="#54" y="6.513"/><use xlink:href="#55" y="10.855"/><use xlink:href="#56" y="15.197"/><use xlink:href="#57" y="19.539"/><use xlink:href="#58" y="23.881"/><use xlink:href="#59" y="28.223"/><use xlink:href="#60" y="32.565"/><use xlink:href="#61" y="36.907"/><use xlink:href="#62" y="39.078"/><use xlink:href="#63" y="43.42"/><use xlink:href="#64" y="45.591"/></svg><svg x="4335"><use xlink:href="#a"/><use xlink:href="#b" x="-.004" y="49.908"/><use xlink:href="#54"/><use xlink:href="#55" y="4.342"/><use xlink:href="#56" y="8.684"/><use xlink:href="#57" y="13.026"/><use xlink:href="#58" y="17.368"/><use xlink:href="#59" y="21.71"/><use xlink:href="#60" y="26.052"/><use xlink:href="#61" y="30.394"/><use xlink:href="#62" y="32.565"/><use xlink:href="#63" y="36.907"/><use xlink:href="#64" y="39.078"/><use xlink:href="#65" y="43.42"/><use xlink:href="#66" y="45.591"/></svg><svg x="4420"><use xlink:href="#a"/><use xlink:href="#b" x="-.004" y="49.908"/><use xlink:href="#57"/><use xlink:href="#58" y="4.342"/><use xlink:href="#59" y="8.684"/><use xlink:href="#60" y="13.026"/><use xlink:href="#61" y="17.368"/><use xlink:href="#62" y="19.539"/><use xlink:href="#63" y="23.881"/><use xlink:href="#64" y="26.052"/><use xlink:href="#65" y="30.394"/><use xlink:href="#66" y="32.565"/><use xlink:href="#67" y="36.907"/><use xlink:href="#68" y="39.078"/><use xlink:href="#69" y="43.42"/><use xlink:href="#70" y="45.591"/></svg><svg x="4505"><use xlink:href="#a"/><use xlink:href="#b" x="-.004" y="49.908"/><use xlink:href="#58"/><use xlink:href="#59" y="4.342"/><use xlink:href="#60" y="8.684"/><use xlink:href="#61" y="13.026"/><use xlink:href="#62" y="15.197"/><use xlink:href="#63" y="19.539"/><use xlink:href="#64" y="21.71"/><use xlink:href="#65" y="26.052"/><use xlink:href="#66" y="28.223"/><use xlink:href="#67" y="32.565"/><use xlink:href="#68" y="34.736"/><use xlink:href="#69" y="39.078"/><use xlink:href="#70" y="41.249"/><use xlink:href="#71" y="45.591"/></svg><svg x="4590"><use xlink:href="#a"/><use xlink:href="#b" x="-.004" y="49.908"/><use xlink:href="#61" y="2.171"/><use xlink:href="#62" y="4.342"/><use xlink:href="#63" y="8.684"/><use xlink:href="#64" y="10.855"/><use xlink:href="#65" y="15.197"/><use xlink:href="#66" y="17.368"/><use xlink:href="#67" y="21.71"/><use xlink:href="#68" y="23.881"/><use xlink:href="#69" y="28.223"/><use xlink:href="#70" y="30.394"/><use xlink:href="#71" y="34.736"/><use xlink:href="#72" y="39.078"/><use xlink:href="#73" y="41.249"/><use xlink:href="#74" y="43.42"/><use xlink:href="#75" y="45.591"/></svg><svg x="4675"><use xlink:href="#a"/><use xlink:href="#b" x="28.996" y="49.908"/><use xlink:href="#61" y="2.171"/><use xlink:href="#62" y="4.342"/><use xlink:href="#63" y="8.684"/><use xlink:href="#64" y="10.855"/><use xlink:href="#65" y="15.197"/><use xlink:href="#66" y="17.368"/><use xlink:href="#67" y="21.71"/><use xlink:href="#68" y="23.881"/><use xlink:href="#69" y="28.223"/><use xlink:href="#70" y="30.394"/><use xlink:href="#71" y="34.736"/><use xlink:href="#72" y="39.078"/><use xlink:href="#73" y="41.249"/><use xlink:href="#74" y="43.42"/><use xlink:href="#75" y="45.591"/><use xlink:href="#1" y="49.933"/></svg><svg x="4760"><use xlink:href="#a"/><use xlink:href="#b" x="-.004" y="49.908"/><use xlink:href="#61"/><use xlink:href="#62" y="2.171"/><use xlink:href="#63" y="6.513"/><use xlink:href="#64" y="8.684"/><use xlink:href="#65" y="13.026"/><use xlink:href="#66" y="15.197"/><use xlink:href="#67" y="19.539"/><use xlink:href="#68" y="21.71"/><use xlink:href="#69" y="26.052"/><use xlink:href="#70" y="28.223"/><use xlink:href="#71" y="32.565"/><use xlink:href="#72" y="36.907"/><use xlink:href="#73" y="39.078"/><use xlink:href="#74" y="41.249"/><use xlink:href="#75" y="43.42"/><text y="49.432" class="c">~/go/src/github.com/cweill</text><text x="27.054" y="49.432" class="d">❯</text><text x="29.058" y="49.432" class="e">exit</text></svg></svg></g></g></svg></svg>